<svg xmlns="http://www.w3.org/2000/svg" xmlns:xlink="http://www.w3.org/1999/xlink" width="569.758" height="150.788" viewBox="0 0 569.758 150.788"><defs><style>.a{fill:#929497;font-size:60px;font-family:Montserrat-Bold, Montserrat;letter-spacing:0.13em;font-weight:700;}.b{font-family:Montserrat-Regular, Montserrat;font-weight:400;}.c{fill:url(#a);}.d{opacity:0.65;fill:url(#b);}</style><radialGradient id="a" cx="0.105" cy="0.069" r="1.044" gradientUnits="objectBoundingBox"><stop offset="0" stop-color="#1dddbd"/><stop offset="0.413" stop-color="#1ed9c0"/><stop offset="1" stop-color="#2978ff"/></radialGradient><radialGradient id="b" cx="0.397" cy="1.093" r="0.678" gradientUnits="objectBoundingBox"><stop offset="0" stop-color="#fff"/><stop offset="1" stop-color="#fff" stop-opacity="0"/></radialGradient></defs><g transform="translate(-1084.242 -435)"><text class="a" transform="translate(1259 496)"><tspan x="0" y="0">C3C</tspan><tspan y="0"> </tspan><tspan class="b"><tspan x="0" y="73">SOFTWARE</tspan></tspan></text><g transform="translate(-323 211.421)"><path class="c" d="M31.738,105.346h0l0-.018c-8.117,5.747-17.1,4.395-22.937-.564-10.48-8.9-13.766-30.806,2.386-43.946L38.931,73.2h0L11.181,60.809c.254-.2.593-.47.887-.69q-.462.345-.889.688A18.387,18.387,0,0,1,.381,40.43C2.85,26.9,20.122,13.223,39.577,20.641l3.157,30.233h.005L39.59,20.628c.372.149.9.364,1.274.53a48.12,48.12,0,0,1,5.785,3.063,40.7,40.7,0,0,0-7.074-3.6A18.1,18.1,0,0,1,51.824,1.311C64.774-3.314,85.336,4.245,88.64,24.8l-.171.126.166-.116v0c8.121-5.759,17.027-3.75,22.869,1.212,10.48,8.9,13.717,30.807-2.435,43.946l-.023-.01-.016.013c9.035,4.156,12.209,12.64,10.833,20.175-2.47,13.527-19.792,27.22-39.247,19.8L77.633,79.793a46.473,46.473,0,0,0,6.109-.1,48.468,48.468,0,0,1-6.128.1l3,30.174.006,0a18.4,18.4,0,0,1-12.159,19.6,22.533,22.533,0,0,1-7.569,1.245A29.827,29.827,0,0,1,31.738,105.346Zm47.877,4.216-.12-.052q-2.037-.908-3.948-1.98A38.978,38.978,0,0,0,79.615,109.562Zm-48.118-6.3q-.2-2.277-.177-4.522A41.707,41.707,0,0,0,31.5,103.259Zm29.683-8.1a49.1,49.1,0,0,1-4.8-7.5l0,0A43.553,43.553,0,0,0,61.18,95.162ZM36.137,78.2a49.246,49.246,0,0,1,2.405-4.38A45.8,45.8,0,0,0,36.137,78.2ZM98.7,76.021a43.544,43.544,0,0,0,9.247-5.221A48.056,48.056,0,0,1,98.7,76.021Zm-86.5-16,.059-.043q.848-.616,1.713-1.188Q13.039,59.4,12.2,60.018ZM32.359,51.5a48.262,48.262,0,0,1,9.192-.671q-.79-.032-1.578-.032A42.819,42.819,0,0,0,32.359,51.5ZM63.979,43,80.336,30.926,63.976,42.992Zm-.505-.947A45.287,45.287,0,0,0,58.462,34.6,48.969,48.969,0,0,1,63.474,42.051Zm25.031-3.341c.013-.079.025-.157.037-.235a42.006,42.006,0,0,0,.441-4.5A47.582,47.582,0,0,1,88.505,38.709Zm.275-12.195q.042.4.077.795-.066-.884-.149-1.723C88.734,25.937,88.757,26.3,88.781,26.515Z" transform="translate(1417.635 233.699)"/><g transform="translate(1407 223)"><path class="d" d="M42.667,32.35,39.508,2.09C20.053-5.327,2.78,8.352.311,21.88a18.388,18.388,0,0,0,10.8,20.378C17.562,37.076,30.032,31.428,42.667,32.35Z" transform="translate(10.705 29.195)"/><path class="d" d="M42.7,32.3,39.551,2.079C20.1-5.339,2.769,8.458.3,21.985c-1.377,7.542,1.95,16,11,20.157A48.283,48.283,0,0,1,42.7,32.3Z" transform="translate(0.242 104.676) rotate(-60)"/><path class="d" d="M42.637,32.272,39.652,2.1C20.2-5.317,2.775,8.258.305,21.785A18.4,18.4,0,0,0,11.2,42.114,48.734,48.734,0,0,1,42.637,32.272Z" transform="translate(60.377 151.366) rotate(-120)"/><path class="d" d="M42.539,32.251,39.554,2.089C20.1-5.329,2.777,8.364.308,21.891c-1.377,7.542,1.8,16.034,10.856,20.186C17.42,36.94,29.1,31.582,42.539,32.251Z" transform="translate(130.807 122.689) rotate(180)"/><path class="d" d="M42.6,32.285l-2.989-30.2C20.158-5.335,2.807,8.421.337,21.948-1.039,29.49,1.676,38.21,10.729,42.362A52.849,52.849,0,0,1,22.6,35.612,49.022,49.022,0,0,1,42.6,32.285Z" transform="translate(141.316 47.356) rotate(120)"/><path class="d" d="M42.5,32.523,39.076,2.056C19.621-5.362,2.793,8.667.324,22.194a18.1,18.1,0,0,0,10.6,20.263A48.206,48.206,0,0,1,42.5,32.523Z" transform="translate(81.518 0.579) rotate(60)"/></g></g></g></svg>