<svg width="120" height="17" viewBox="0 0 120 17" fill="none" xmlns="http://www.w3.org/2000/svg">
<g clip-path="url(#clip0_27_663)">
<path d="M42.6187 1.73462L40.7829 7.43911H39.0662L37.9813 3.96985L36.8488 7.43911H35.1321L33.2963 1.73462H34.9533L36.0978 5.37851L37.2899 1.73462H38.7682L39.9126 5.41343L41.1047 1.73462H42.6307H42.6187Z" fill="white"/>
<path d="M48.5555 6.19344V7.43911H44.0016V1.73462H48.4482V2.98029H45.5871V3.94656H48.1025V5.15731H45.5871V6.20508H48.5555V6.19344Z" fill="white"/>
<path d="M55.6488 5.87911C55.6488 6.86866 54.8381 7.43911 53.3122 7.43911H50.2484V1.73462H53.1453C54.6355 1.73462 55.3627 2.35164 55.3627 3.22477C55.3627 3.77194 55.0885 4.21433 54.5997 4.4588C55.2434 4.69164 55.6368 5.1806 55.6368 5.86747L55.6488 5.87911ZM51.8459 2.8988V4.00477H52.9426C53.4791 4.00477 53.7533 3.8185 53.7533 3.44597C53.7533 3.07343 53.4791 2.8988 52.9426 2.8988H51.8459ZM54.0275 5.69284C54.0275 5.29702 53.7294 5.11075 53.1811 5.11075H51.8339V6.26329H53.1811C53.7294 6.26329 54.0275 6.07702 54.0275 5.6812V5.69284Z" fill="white"/>
<path d="M60.0715 6.92683L60.5961 5.73937C61.0968 6.07698 61.812 6.29818 62.4677 6.29818C63.1234 6.29818 63.3857 6.11191 63.3857 5.8325C63.3857 4.92444 60.1669 5.58802 60.1669 3.46921C60.1669 2.44473 60.9895 1.61816 62.6823 1.61816C63.4214 1.61816 64.1844 1.79279 64.7328 2.11876L64.244 3.31787C63.6956 3.02682 63.1711 2.87548 62.6704 2.87548C62.0028 2.87548 61.7524 3.10832 61.7524 3.38772C61.7524 4.26086 64.9712 3.60892 64.9712 5.71608C64.9712 6.70564 64.1486 7.55549 62.4558 7.55549C61.5259 7.55549 60.608 7.29937 60.0715 6.92683Z" fill="white"/>
<path d="M66.4614 4.90119V1.73462H68.0589V4.84298C68.0589 5.8209 68.4642 6.21672 69.1318 6.21672C69.7994 6.21672 70.2047 5.8209 70.2047 4.84298V1.73462H71.7783V4.90119C71.7783 6.6009 70.7889 7.55553 69.1199 7.55553C67.4509 7.55553 66.4614 6.6009 66.4614 4.90119Z" fill="white"/>
<path d="M78.8118 7.45075V4.42388L77.3336 6.89195H76.6183L75.1639 4.51701V7.4624H73.6857V1.73462H75.0089L76.9998 5.02925L78.943 1.73462H80.2662V7.43911H78.8118V7.45075Z" fill="white"/>
<path d="M87.3475 7.45075V4.42388L85.8692 6.89195H85.154L83.6996 4.51701V7.4624H82.2213V1.73462H83.5446L85.5354 5.02925L87.4786 1.73462H88.8019V7.43911H87.3475V7.45075Z" fill="white"/>
<path d="M90.7689 1.73462H92.3664V7.43911H90.7689V1.73462Z" fill="white"/>
<path d="M95.5255 3.01522H93.785V1.73462H98.8635V3.01522H97.1349V7.43911H95.5375V3.01522H95.5255Z" fill="white"/>
<path d="M37.9337 13.877H38.7086V16.1006C38.1363 16.5779 37.3615 16.8223 36.5627 16.8223C34.8222 16.8223 33.5466 15.5883 33.5466 13.9002C33.5466 12.2122 34.8222 10.9781 36.5866 10.9781C37.4807 10.9781 38.2436 11.2808 38.7682 11.8629L38.2675 12.3635C37.8025 11.9095 37.2661 11.6999 36.6223 11.6999C35.311 11.6999 34.3692 12.6196 34.3692 13.8886C34.3692 15.1576 35.311 16.0773 36.6223 16.0773C37.0992 16.0773 37.5403 15.9725 37.9456 15.7047V13.842L37.9337 13.877Z" fill="white"/>
<path d="M41.069 11.0481H41.8796V16.0424H44.9434V16.7526H41.069V11.0481Z" fill="white"/>
<path d="M46.1237 13.9002C46.1237 12.2238 47.3992 10.9781 49.1398 10.9781C50.8803 10.9781 52.1439 12.2122 52.1439 13.9002C52.1439 15.5883 50.8683 16.8223 49.1398 16.8223C47.4112 16.8223 46.1237 15.5767 46.1237 13.9002ZM51.3333 13.9002C51.3333 12.6313 50.3915 11.7116 49.1398 11.7116C47.888 11.7116 46.9343 12.6429 46.9343 13.9002C46.9343 15.1576 47.8761 16.0889 49.1398 16.0889C50.4034 16.0889 51.3333 15.1576 51.3333 13.9002Z" fill="white"/>
<path d="M59.0821 15.2159C59.0821 16.1938 58.343 16.7526 56.9124 16.7526H54.2063V11.0481H56.7455C58.045 11.0481 58.7841 11.6069 58.7841 12.5266C58.7841 13.1436 58.4622 13.5744 58.0211 13.7956C58.6649 13.9702 59.0821 14.4591 59.0821 15.2159ZM55.0169 11.7117V13.5394H56.674C57.4966 13.5394 57.9734 13.2251 57.9734 12.6314C57.9734 12.0377 57.5085 11.7233 56.674 11.7233H55.0169V11.7117ZM58.2595 15.1577C58.2595 14.4941 57.7708 14.203 56.8767 14.203H55.0169V16.1006H56.8767C57.7708 16.1006 58.2595 15.8096 58.2595 15.1577Z" fill="white"/>
<path d="M64.7566 15.3322H61.7405L61.1206 16.7642H60.2861L62.8492 11.0597H63.6479L66.2229 16.7642H65.3765L64.7566 15.3322ZM64.4705 14.6803L63.2426 11.8863L62.0147 14.6803H64.4586H64.4705Z" fill="white"/>
<path d="M67.88 11.0481H68.6907V16.0424H71.7544V16.7526H67.88V11.0481Z" fill="white"/>
<path d="M81.065 13.0388C81.065 14.2729 80.1709 15.0296 78.7046 15.0296H77.3098V16.7526H76.4991V11.0481H78.7046C80.1828 11.0481 81.065 11.7932 81.065 13.0388ZM80.2544 13.0388C80.2544 12.2239 79.706 11.7582 78.6807 11.7582H77.3098V14.3194H78.6807C79.7179 14.3194 80.2544 13.8538 80.2544 13.0388Z" fill="white"/>
<path d="M86.3938 15.3322H83.3777L82.7578 16.7642H81.9233L84.4864 11.0597H85.2852L87.8602 16.7642H87.0137L86.3938 15.3322ZM86.1077 14.6803L84.8798 11.8863L83.6519 14.6803H86.0958H86.1077Z" fill="white"/>
<path d="M93.3082 16.7642L92.0803 15.0063C91.973 15.0063 91.8419 15.018 91.7227 15.018H90.3279V16.7526H89.5172V11.0481H91.7227C93.2009 11.0481 94.0831 11.7932 94.0831 13.0388C94.0831 13.9236 93.6301 14.5523 92.8313 14.8433L94.1785 16.7642H93.2963H93.3082ZM93.2844 13.0505C93.2844 12.2356 92.736 11.7699 91.7107 11.7699H90.3398V14.3427H91.7107C92.7479 14.3427 93.2844 13.8654 93.2844 13.0505Z" fill="white"/>
<path d="M97.266 11.7582H95.3229V11.0481H100.008V11.7582H98.0648V16.7526H97.266V11.7582Z" fill="white"/>
<path d="M106.577 11.0481V16.7526H105.909L102.511 12.4917V16.7526H101.701V11.0481H102.368L105.766 15.309V11.0481H106.577Z" fill="white"/>
<path d="M113.205 16.054V16.7642H109.092V11.0597H113.086V11.7698H109.891V13.5278H112.728V14.2146H109.891V16.054H113.193H113.205Z" fill="white"/>
<path d="M119.118 16.7642L117.89 15.0063C117.783 15.0063 117.652 15.018 117.532 15.018H116.138V16.7526H115.327V11.0481H117.532C119.011 11.0481 119.893 11.7932 119.893 13.0388C119.893 13.9236 119.44 14.5523 118.641 14.8433L119.988 16.7642H119.106H119.118ZM119.094 13.0505C119.094 12.2356 118.546 11.7699 117.52 11.7699H116.149V14.3427H117.52C118.558 14.3427 119.094 13.8654 119.094 13.0505Z" fill="white"/>
<path d="M6.84284 5.26208L0 16.8224H5.87721L9.7874 10.2215L6.84284 5.26208Z" fill="white"/>
<path d="M17.119 0L13.8525 5.51822L7.16467 16.8224H20.5523H27.0852L17.119 0Z" fill="white"/>
</g>
<defs>
<clipPath id="clip0_27_663">
<rect width="120" height="16.8224" fill="white"/>
</clipPath>
</defs>
</svg>
