<svg width="164" height="92" viewBox="0 0 164 92" fill="none" xmlns="http://www.w3.org/2000/svg">
<g clip-path="url(#clip0_27_343)">
<path d="M0 49.9241H21.1723V54.3334H13.0898V75.8612H8.0841V54.3334H0V49.9241Z" fill="white"/>
<path d="M28.0878 56.9084C29.2371 56.2289 30.5778 55.8771 32.1113 55.853V60.521C30.0586 60.3973 28.4221 60.8727 27.1988 61.9474C25.9755 63.022 25.3631 64.4725 25.3631 66.3005V75.8596H20.5422V56.0378H25.3631V59.8543C26.0302 58.5709 26.9384 57.5878 28.0878 56.9084Z" fill="white"/>
<path d="M46.7203 75.8595V73.4517C46.0274 74.3159 45.1385 74.9712 44.0502 75.4146C42.9619 75.8595 41.7145 76.0812 40.3047 76.0812C38.895 76.0812 37.7022 75.8161 36.6525 75.2845C35.6012 74.7528 34.7926 74.0187 34.2236 73.079C33.6545 72.1409 33.37 71.0904 33.37 69.9306C33.37 68.0786 34.0242 66.6264 35.336 65.5775C36.6461 64.5286 38.4995 63.9905 40.8979 63.9664H46.6817V63.4476C46.6817 62.2862 46.2975 61.3851 45.5323 60.7425C44.7655 60.1 43.6531 59.7787 42.1952 59.7787C40.316 59.7787 38.3516 60.3972 36.2989 61.6308L34.5563 58.2961C36.114 57.4319 37.5286 56.8087 38.8017 56.4248C40.0749 56.0425 41.5634 55.8513 43.269 55.8513C45.8393 55.8513 47.8359 56.4697 49.2569 57.7034C50.6779 58.9386 51.4013 60.667 51.4254 62.8902L51.4624 75.8579H46.7154L46.7203 75.8595ZM45.0147 71.394C46.0033 70.7402 46.5595 69.9306 46.6833 68.9668V67.1887H41.6775C40.3915 67.1887 39.4463 67.3798 38.8403 67.7621C38.2343 68.1444 37.9321 68.7693 37.9321 69.6335C37.9321 70.4977 38.2471 71.1402 38.8773 71.6349C39.5074 72.1297 40.3658 72.3754 41.4541 72.3754C42.8382 72.3754 44.0245 72.0477 45.0131 71.394H45.0147Z" fill="white"/>
<path d="M72.0078 57.909C73.3179 59.2792 73.9722 61.1393 73.9722 63.4845V75.8595H69.1143V64.8916C69.1143 63.5086 68.7189 62.4147 67.928 61.6132C67.1371 60.81 66.0617 60.4084 64.7017 60.4084C63.0942 60.4341 61.8275 60.9771 60.9016 62.0388C59.9741 63.1006 59.5111 64.4595 59.5111 66.114V75.8579H54.6902V56.036H59.5111V59.7418C60.8711 57.1974 63.2437 55.9011 66.6307 55.8513C68.9037 55.8513 70.6961 56.5372 72.0062 57.9074L72.0078 57.909Z" fill="white"/>
<path d="M87.6359 60.0759C86.6103 59.7546 85.6651 59.594 84.7987 59.594C83.9837 59.594 83.3342 59.7369 82.852 60.0196C82.3697 60.3039 82.1286 60.7425 82.1286 61.3352C82.1286 61.9279 82.4308 62.4291 83.0368 62.7616C83.6429 63.0957 84.5993 63.4475 85.911 63.8186C87.2951 64.2394 88.4332 64.6522 89.3221 65.0602C90.2127 65.4682 90.9843 66.0738 91.6402 66.8754C92.2944 67.6785 92.6223 68.7339 92.6223 70.043C92.6223 71.969 91.8813 73.4516 90.3976 74.4893C88.9138 75.527 87.0475 76.0458 84.7987 76.0458C83.2651 76.0458 81.7701 75.8048 80.3121 75.323C78.8525 74.8411 77.618 74.1552 76.6036 73.2669L78.2722 69.8952C79.1628 70.6614 80.2253 71.2606 81.4615 71.6927C82.6977 72.1248 83.8711 72.3416 84.9835 72.3416C85.8741 72.3416 86.583 72.1874 87.1151 71.879C87.6471 71.5706 87.9124 71.108 87.9124 70.4896C87.9124 69.7988 87.6037 69.28 86.9848 68.933C86.366 68.5877 85.3661 68.2054 83.982 67.7845C82.6478 67.3894 81.5596 67.0007 80.7188 66.6167C79.8781 66.2344 79.1483 65.653 78.531 64.8755C77.9121 64.0981 77.6035 63.078 77.6035 61.8187C77.6035 59.867 78.314 58.3796 79.735 57.3532C81.1561 56.3283 82.942 55.8159 85.0928 55.8159C86.4029 55.8159 87.6938 56.0006 88.9685 56.3717C90.2416 56.7428 91.3717 57.2616 92.3603 57.9282L90.6178 61.4107C89.6533 60.8437 88.6583 60.3987 87.6327 60.0775L87.6359 60.0759Z" fill="white"/>
<path d="M102.986 52.9246C102.504 53.3455 102.263 53.9752 102.263 54.8153V56.8537H107.231V60.3731H102.263V75.8611H97.4416V60.3731H94.8455V56.8537H97.4416V54.9646C97.4416 53.5077 97.7631 52.266 98.4061 51.2412C99.0491 50.2164 99.9075 49.4438 100.983 48.9249C102.058 48.4061 103.225 48.1475 104.487 48.1475C105.749 48.1475 106.934 48.4318 108.12 49.0004L107.268 52.8909C106.28 52.4957 105.463 52.2982 104.822 52.2982C104.081 52.2982 103.468 52.5086 102.986 52.9278V52.9246Z" fill="white"/>
<path d="M124.936 58.5934C126.531 60.3973 127.328 62.9288 127.328 66.1897C127.328 66.8322 127.315 67.3141 127.291 67.6353H112.645C112.967 69.0425 113.627 70.1492 114.629 70.9508C115.63 71.7539 116.86 72.1555 118.318 72.1555C119.331 72.1555 120.302 71.9643 121.229 71.5804C122.157 71.1981 122.965 70.6488 123.658 69.9324L126.254 72.6374C125.266 73.7249 124.06 74.5634 122.639 75.1577C121.218 75.7504 119.641 76.0476 117.911 76.0476C115.884 76.0476 114.098 75.6283 112.554 74.7882C111.009 73.9497 109.816 72.7691 108.975 71.2495C108.135 69.73 107.715 67.9839 107.715 66.0065C107.715 64.0292 108.141 62.2767 108.995 60.7459C109.848 59.2151 111.039 58.0232 112.573 57.1702C114.105 56.3173 115.847 55.8916 117.801 55.8916C120.964 55.8916 123.343 56.7943 124.938 58.5966L124.936 58.5934ZM122.916 64.4099C122.866 62.9529 122.383 61.7916 121.469 60.9274C120.554 60.0632 119.342 59.6311 117.834 59.6311C116.425 59.6311 115.245 60.0568 114.293 60.9097C113.341 61.7627 112.755 62.9288 112.531 64.4115H122.914L122.916 64.4099Z" fill="white"/>
<path d="M138.174 56.9084C139.323 56.2289 140.664 55.8771 142.198 55.853V60.521C140.146 60.3973 138.508 60.8727 137.285 61.9474C136.062 63.022 135.449 64.4725 135.449 66.3005V75.8596H130.628V56.0378H135.449V59.8543C136.116 58.5709 137.025 57.5878 138.174 56.9084Z" fill="white"/>
<path d="M159.012 57.1492C160.581 57.9893 161.806 59.1684 162.683 60.6879C163.561 62.2075 164 63.9552 164 65.9309C164 67.9067 163.561 69.6977 162.683 71.2302C161.806 72.7626 160.582 73.948 159.012 74.7865C157.441 75.6266 155.631 76.0459 153.58 76.0459C151.529 76.0459 149.674 75.6266 148.092 74.7865C146.51 73.948 145.279 72.761 144.403 71.2302C143.525 69.6993 143.086 67.9324 143.086 65.9309C143.086 63.9295 143.525 62.2075 144.403 60.6879C145.281 59.1684 146.51 57.9893 148.092 57.1492C149.674 56.3091 151.503 55.8899 153.58 55.8899C155.657 55.8899 157.443 56.3107 159.012 57.1492ZM149.502 61.6694C148.464 62.781 147.944 64.225 147.944 66.0048C147.944 67.7846 148.464 69.2287 149.502 70.3403C150.54 71.4518 151.899 72.0076 153.58 72.0076C155.262 72.0076 156.546 71.4518 157.584 70.3403C158.623 69.2287 159.142 67.7846 159.142 66.0048C159.142 64.225 158.623 62.781 157.584 61.6694C156.546 60.5578 155.212 60.002 153.58 60.002C151.949 60.002 150.54 60.5578 149.502 61.6694Z" fill="white"/>
<path d="M52.0138 89.3109H47.643L46.738 91.3059H45.5275L49.2521 83.3274H50.4159L54.1534 91.3059H52.9188L52.0138 89.3109ZM51.6023 88.3985L49.8276 84.4888L48.0529 88.3985H51.6023Z" fill="white"/>
<path d="M56.3492 87.3159C56.3492 84.9562 58.2058 83.2358 60.7087 83.2358C61.977 83.2358 63.083 83.6567 63.8353 84.4775L63.0717 85.1955C62.4368 84.5466 61.662 84.2494 60.7569 84.2494C58.9003 84.2494 57.5259 85.5489 57.5259 87.3159C57.5259 89.0828 58.9003 90.3823 60.7569 90.3823C61.662 90.3823 62.4368 90.0739 63.0717 89.425L63.8353 90.143C63.083 90.9638 61.9786 91.3959 60.6975 91.3959C58.2058 91.3959 56.3492 89.6755 56.3492 87.3159Z" fill="white"/>
<path d="M72.318 89.3109H67.9473L67.0422 91.3059H65.8318L69.5564 83.3274H70.7202L74.4576 91.3059H73.2231L72.318 89.3109ZM71.9065 88.3985L70.1318 84.4888L68.3572 88.3985H71.9065Z" fill="white"/>
<path d="M77.4412 83.3258H80.9085C83.5529 83.3258 85.35 84.945 85.35 87.3143C85.35 89.6836 83.5529 91.3028 80.9085 91.3028H77.4412V83.3242V83.3258ZM80.8378 90.3133C82.8713 90.3133 84.175 89.1053 84.175 87.3159C84.175 85.5265 82.8713 84.3185 80.8378 84.3185H78.6162V90.3133H80.8378Z" fill="white"/>
<path d="M94.8793 90.3131V91.3042H88.9091V83.3257H94.7137V84.3168H90.0841V86.768H94.209V87.7366H90.0841V90.3131H94.8793Z" fill="white"/>
<path d="M106.172 91.3042L106.161 85.491L103.187 90.3356H102.647L99.6728 85.5263V91.3042H98.5444V83.3257H99.5073L102.939 88.9333L106.323 83.3257H107.288L107.299 91.3042H106.17H106.172Z" fill="white"/>
<path d="M114.679 88.5462V91.3042H113.515V88.5237L110.249 83.3257H111.506L114.139 87.531L116.783 83.3257H117.947L114.68 88.5462H114.679Z" fill="white"/>
<path d="M82.0005 20.9129L71.5363 31.3694L82.0005 41.8259L92.4647 31.3694L82.0005 20.9129Z" fill="white"/>
<path d="M61.0731 0.000309972L50.6089 10.4568L61.0731 20.9133L71.5373 10.4568L61.0731 0.000309972Z" fill="white"/>
<path d="M102.928 0.00104239L92.4643 10.4575L102.928 20.914L113.393 10.4575L102.928 0.00104239Z" fill="white"/>
<mask id="mask0_27_343" style="mask-type:luminance" maskUnits="userSpaceOnUse" x="61" y="0" width="42" height="21">
<path d="M102.928 20.9126H82L61.072 0H82L102.928 20.9126Z" fill="white"/>
</mask>
<g mask="url(#mask0_27_343)">
<path d="M63.0814 0L61.072 4.01256V0H63.0814Z" fill="#FF00FF"/>
<path d="M63.2743 0L61.072 4.39968V4.01256L63.0814 0H63.2743Z" fill="#FF00FF"/>
<path d="M63.4688 0L61.072 4.7868V4.39968L63.2743 0H63.4688Z" fill="#FE01FF"/>
<path d="M63.6617 0L61.072 5.17393V4.7868L63.4688 0H63.6617Z" fill="#FD02FF"/>
<path d="M63.8562 0L61.072 5.55944V5.17392L63.6617 0H63.8562Z" fill="#FC03FF"/>
<path d="M64.0507 0L61.072 5.94656V5.55944L63.8562 0H64.0507Z" fill="#FB04FF"/>
<path d="M64.2436 0L61.072 6.33368V5.94656L64.0507 0H64.2436Z" fill="#FA05FF"/>
<path d="M64.4381 0L61.072 6.7208V6.33368L64.2436 0H64.4381Z" fill="#F906FF"/>
<path d="M64.631 0L61.072 7.10792V6.7208L64.4381 0H64.631Z" fill="#F807FF"/>
<path d="M64.8255 0L61.072 7.49344V7.10792L64.631 0H64.8255Z" fill="#F708FF"/>
<path d="M65.0184 0L61.072 7.88056V7.49344L64.8255 0H65.0184Z" fill="#F609FF"/>
<path d="M65.2129 0L61.072 8.26768V7.88056L65.0184 0H65.2129Z" fill="#F50AFF"/>
<path d="M65.4058 0L61.072 8.6548V8.26768L65.2129 0H65.4058Z" fill="#F40BFF"/>
<path d="M65.6003 0L61.072 9.04031V8.6548L65.4058 0H65.6003Z" fill="#F30CFF"/>
<path d="M65.7932 0L61.072 9.42743V9.04031L65.6003 0H65.7932Z" fill="#F20DFF"/>
<path d="M65.9877 0L61.072 9.81456V9.42743L65.7932 0H65.9877Z" fill="#F10EFF"/>
<path d="M66.1806 0L61.072 10.2017V9.81456L65.9877 0H66.1806Z" fill="#F00FFF"/>
<path d="M66.3752 0L61.072 10.5888V10.2017L66.1806 0H66.3752Z" fill="#EF10FF"/>
<path d="M66.568 0L61.1395 10.8394L61.072 10.8056V10.5888L66.3752 0H66.568Z" fill="#EE11FF"/>
<path d="M66.7626 0L61.2938 10.9165L61.1395 10.8394L66.568 0H66.7626Z" fill="#ED12FF"/>
<path d="M66.9554 0L61.4498 10.9952L61.2938 10.9165L66.7625 0H66.9554Z" fill="#EC13FF"/>
<path d="M67.15 0L61.6041 11.0723L61.4498 10.9952L66.9554 0H67.15Z" fill="#EB14FF"/>
<path d="M67.3429 0L61.7584 11.1494L61.6041 11.0723L67.15 0H67.3429Z" fill="#EA15FF"/>
<path d="M67.5374 0L61.9144 11.2265L61.7584 11.1494L67.3429 0H67.5374Z" fill="#E916FF"/>
<path d="M67.7303 0L62.0687 11.3052L61.9144 11.2265L67.5374 0H67.7303Z" fill="#E817FF"/>
<path d="M67.9248 0L62.223 11.3823L62.0687 11.3052L67.7303 0H67.9248Z" fill="#E718FF"/>
<path d="M68.1177 0L62.3789 11.4594L62.223 11.3823L67.9248 0H68.1177Z" fill="#E619FF"/>
<path d="M68.3122 0L62.5332 11.5365L62.3789 11.4594L68.1177 0H68.3122Z" fill="#E51AFF"/>
<path d="M68.5051 0L62.6876 11.6152L62.5333 11.5365L68.3122 0H68.5051Z" fill="#E41BFF"/>
<path d="M68.6996 0L62.8435 11.6923L62.6876 11.6152L68.5051 0H68.6996Z" fill="#E31CFF"/>
<path d="M68.8925 0L62.9978 11.7694L62.8435 11.6923L68.6996 0H68.8925Z" fill="#E21DFF"/>
<path d="M69.087 0L63.1537 11.8465L62.9978 11.7694L68.8925 0H69.087Z" fill="#E11EFF"/>
<path d="M69.2799 0L63.3081 11.9236L63.1537 11.8465L69.087 0H69.2799Z" fill="#E01FFF"/>
<path d="M69.4744 0L63.4624 12.0024L63.308 11.9236L69.2799 0H69.4744Z" fill="#DF20FF"/>
<path d="M69.6673 0L63.6183 12.0795L63.4623 12.0023L69.4744 0H69.6673Z" fill="#DE21FF"/>
<path d="M69.8618 0L63.7726 12.1566L63.6183 12.0795L69.6673 0H69.8618Z" fill="#DD22FF"/>
<path d="M70.0547 0L63.9269 12.2337L63.7726 12.1566L69.8618 0H70.0547Z" fill="#DC23FF"/>
<path d="M70.2492 0L64.0829 12.3124L63.9269 12.2337L70.0547 0H70.2492Z" fill="#DB24FF"/>
<path d="M70.4421 0L64.2372 12.3895L64.0829 12.3124L70.2492 0H70.4421Z" fill="#DA25FF"/>
<path d="M70.6366 0L64.3915 12.4666L64.2372 12.3895L70.4421 0H70.6366Z" fill="#D926FF"/>
<path d="M70.8295 0L64.5474 12.5437L64.3915 12.4666L70.6366 0H70.8295Z" fill="#D827FF"/>
<path d="M71.024 0L64.7017 12.6208L64.5474 12.5437L70.8295 0H71.024Z" fill="#D728FF"/>
<path d="M71.2169 0L64.8576 12.6995L64.7017 12.6208L71.024 0H71.2169Z" fill="#D629FF"/>
<path d="M71.4114 0L65.012 12.7766L64.8577 12.6995L71.2169 0H71.4114Z" fill="#D52AFF"/>
<path d="M71.6043 0L65.1663 12.8537L65.012 12.7766L71.4114 0H71.6043Z" fill="#D42BFF"/>
<path d="M71.7988 0L65.3222 12.9308L65.1663 12.8537L71.6043 0H71.7988Z" fill="#D32CFF"/>
<path d="M71.9918 0L65.4766 13.0095L65.3223 12.9308L71.7989 0H71.9918Z" fill="#D22DFF"/>
<path d="M72.1863 0L65.6309 13.0866L65.4766 13.0095L71.9917 0H72.1863Z" fill="#D12EFF"/>
<path d="M72.3791 0L65.7868 13.1637L65.6309 13.0866L72.1862 0H72.3791Z" fill="#D02FFF"/>
<path d="M72.5737 0L65.9411 13.2408L65.7868 13.1637L72.3791 0H72.5737Z" fill="#CF30FF"/>
<path d="M72.7665 0L66.097 13.3195L65.9411 13.2408L72.5736 0H72.7665Z" fill="#CE31FF"/>
<path d="M72.9611 0L66.2514 13.3966L66.097 13.3195L72.7666 0H72.9611Z" fill="#CD32FF"/>
<path d="M73.154 0L66.4057 13.4737L66.2514 13.3966L72.9611 0H73.154Z" fill="#CC33FF"/>
<path d="M73.3485 0L66.5616 13.5508L66.4057 13.4737L73.154 0H73.3485Z" fill="#CB34FF"/>
<path d="M73.5414 0L66.716 13.6279L66.5616 13.5508L73.3485 0H73.5414Z" fill="#CA35FF"/>
<path d="M73.7359 0L66.8703 13.7066L66.7159 13.6279L73.5414 0H73.7359Z" fill="#C936FF"/>
<path d="M73.9288 0L67.0262 13.7837L66.8702 13.7066L73.7359 0H73.9288Z" fill="#C837FF"/>
<path d="M74.1233 0L67.1805 13.8609L67.0262 13.7837L73.9288 0H74.1233Z" fill="#C738FF"/>
<path d="M74.3162 0L67.3348 13.938L67.1805 13.8609L74.1233 0H74.3162Z" fill="#C639FF"/>
<path d="M74.5107 0L67.4908 14.0167L67.3348 13.938L74.3162 0H74.5107Z" fill="#C53AFF"/>
<path d="M74.7036 0L67.645 14.0938L67.4907 14.0167L74.5107 0H74.7036Z" fill="#C43BFF"/>
<path d="M74.8981 0L67.801 14.1709L67.6451 14.0938L74.7036 0H74.8981Z" fill="#C33CFF"/>
<path d="M75.091 0L67.9553 14.248L67.801 14.1709L74.8981 0H75.091Z" fill="#C23DFF"/>
<path d="M75.2855 0L68.1096 14.3267L67.9553 14.248L75.091 0H75.2855Z" fill="#C13EFF"/>
<path d="M75.4784 0L68.2655 14.4038L68.1096 14.3267L75.2855 0H75.4784Z" fill="#C03FFF"/>
<path d="M75.6729 0L68.4199 14.4809L68.2656 14.4038L75.4784 0H75.6729Z" fill="#BF40FF"/>
<path d="M75.8658 0L68.5742 14.558L68.4199 14.4809L75.6729 0H75.8658Z" fill="#BE41FF"/>
<path d="M76.0603 0L68.7301 14.6351L68.5742 14.558L75.8658 0H76.0603Z" fill="#BD42FF"/>
<path d="M76.2532 0L68.8844 14.7138L68.7301 14.6351L76.0603 0H76.2532Z" fill="#BC43FF"/>
<path d="M76.4477 0L69.0388 14.7909L68.8845 14.7138L76.2532 0H76.4477Z" fill="#BB44FF"/>
<path d="M76.6406 0L69.1947 14.868L69.0388 14.7909L76.4477 0H76.6406Z" fill="#BA45FF"/>
<path d="M76.8351 0L69.349 14.9451L69.1947 14.868L76.6406 0H76.8351Z" fill="#B946FF"/>
<path d="M77.028 0L69.5049 15.0238L69.349 14.9451L76.8351 0H77.028Z" fill="#B847FF"/>
<path d="M77.2225 0L69.6593 15.1009L69.5049 15.0238L77.028 0H77.2225Z" fill="#B748FF"/>
<path d="M77.4154 0L69.8136 15.178L69.6592 15.1009L77.2225 0H77.4154Z" fill="#B649FF"/>
<path d="M77.61 0L69.9695 15.2551L69.8136 15.178L77.4155 0H77.61Z" fill="#B54AFF"/>
<path d="M77.8028 0L70.1238 15.3322L69.9695 15.2551L77.6099 0H77.8028Z" fill="#B44BFF"/>
<path d="M77.9974 0L70.2782 15.4109L70.1238 15.3322L77.8028 0H77.9974Z" fill="#B34CFF"/>
<path d="M78.1902 0L70.4341 15.488L70.2781 15.4109L77.9973 0H78.1902Z" fill="#B24DFF"/>
<path d="M78.3848 0L70.5884 15.5651L70.4341 15.488L78.1903 0H78.3848Z" fill="#B14EFF"/>
<path d="M78.5776 0L70.7443 15.6422L70.5884 15.5651L78.3847 0H78.5776Z" fill="#B04FFF"/>
<path d="M78.7722 0L70.8986 15.721L70.7443 15.6422L78.5777 0H78.7722Z" fill="#AF50FF"/>
<path d="M78.965 0L71.0529 15.7981L70.8986 15.721L78.7721 0H78.965Z" fill="#AE51FF"/>
<path d="M79.1596 0L71.2089 15.8752L71.053 15.7981L78.9651 0H79.1596Z" fill="#AD52FF"/>
<path d="M79.3525 0L71.3632 15.9523L71.2089 15.8752L79.1596 0H79.3525Z" fill="#AC53FF"/>
<path d="M79.547 0L71.5175 16.031L71.3632 15.9523L79.3525 0H79.547Z" fill="#AB54FF"/>
<path d="M79.7399 0L71.6734 16.1081L71.5175 16.031L79.547 0H79.7399Z" fill="#AA55FF"/>
<path d="M79.9344 0L71.8278 16.1852L71.6735 16.1081L79.7399 0H79.9344Z" fill="#A956FF"/>
<path d="M80.1273 0L71.9821 16.2623L71.8278 16.1852L79.9344 0H80.1273Z" fill="#A857FF"/>
<path d="M80.3218 0L72.138 16.3394L71.9821 16.2623L80.1273 0H80.3218Z" fill="#A758FF"/>
<path d="M80.5147 0L72.2923 16.4181L72.138 16.3394L80.3218 0H80.5147Z" fill="#A659FF"/>
<path d="M80.7092 0L72.4483 16.4952L72.2924 16.4181L80.5147 0H80.7092Z" fill="#A55AFF"/>
<path d="M80.9021 0L72.6026 16.5723L72.4482 16.4952L80.7092 0H80.9021Z" fill="#A45BFF"/>
<path d="M81.0966 0L72.7569 16.6494L72.6026 16.5723L80.9021 0H81.0966Z" fill="#A35CFF"/>
<path d="M81.2895 0L72.9128 16.7281L72.7569 16.6494L81.0966 0H81.2895Z" fill="#A25DFF"/>
<path d="M81.484 0L73.0672 16.8052L72.9128 16.7281L81.2895 0H81.484Z" fill="#A15EFF"/>
<path d="M81.6769 0L73.2215 16.8823L73.0671 16.8052L81.484 0H81.6769Z" fill="#A05FFF"/>
<path d="M81.8714 0L73.3774 16.9594L73.2215 16.8823L81.6769 0H81.8714Z" fill="#9F60FF"/>
<path d="M82.0643 0L73.5317 17.0381L73.3774 16.9594L81.8714 0H82.0643Z" fill="#9E61FF"/>
<path d="M82.2588 0L73.6861 17.1152L73.5317 17.0381L82.0643 0H82.2588Z" fill="#9D62FF"/>
<path d="M82.4517 0L73.842 17.1923L73.686 17.1152L82.2588 0H82.4517Z" fill="#9C63FF"/>
<path d="M82.6462 0L73.9963 17.2694L73.842 17.1923L82.4517 0H82.6462Z" fill="#9B64FF"/>
<path d="M82.7186 0L82.815 0.0481893L74.1522 17.3465L73.9963 17.2694L82.6462 0H82.7186Z" fill="#9A65FF"/>
<path d="M82.8194 0.0518451L74.1542 17.3506L74.3094 17.4282L82.9746 0.129496L82.8194 0.0518451Z" fill="#9966FF"/>
<path d="M82.9743 0.126793L74.3091 17.4255L74.4643 17.5032L83.1295 0.204444L82.9743 0.126793Z" fill="#9867FF"/>
<path d="M83.1298 0.205654L74.4647 17.5044L74.6199 17.582L83.2851 0.283305L83.1298 0.205654Z" fill="#9768FF"/>
<path d="M83.2856 0.283779L74.6204 17.5825L74.7757 17.6602L83.4409 0.36143L83.2856 0.283779Z" fill="#9669FF"/>
<path d="M83.4405 0.360439L74.7753 17.6592L74.9305 17.7368L83.5957 0.43809L83.4405 0.360439Z" fill="#956AFF"/>
<path d="M83.5946 0.438564L74.9294 17.7373L75.0847 17.815L83.7499 0.516215L83.5946 0.438564Z" fill="#946BFF"/>
<path d="M83.7495 0.515473L75.0843 17.8142L75.2395 17.8919L83.9047 0.593124L83.7495 0.515473Z" fill="#936CFF"/>
<path d="M83.9051 0.592617L75.2399 17.8914L75.3951 17.969L84.0603 0.670268L83.9051 0.592617Z" fill="#926DFF"/>
<path d="M84.0592 0.670738L75.394 17.9695L75.5493 18.0471L84.2145 0.748389L84.0592 0.670738Z" fill="#916EFF"/>
<path d="M84.2141 0.747402L75.5489 18.0461L75.7041 18.1238L84.3693 0.825053L84.2141 0.747402Z" fill="#906FFF"/>
<path d="M84.3682 0.825527L75.7031 18.1243L75.8583 18.2019L84.5235 0.903178L84.3682 0.825527Z" fill="#8F70FF"/>
<path d="M84.5238 0.904381L75.8586 18.2031L76.0139 18.2808L84.6791 0.982032L84.5238 0.904381Z" fill="#8E71FF"/>
<path d="M84.6803 0.97958L76.0151 18.2783L76.1703 18.356L84.8355 1.05723L84.6803 0.97958Z" fill="#8D72FF"/>
<path d="M84.8344 1.0577L76.1693 18.3564L76.3245 18.4341L84.9897 1.13535L84.8344 1.0577Z" fill="#8C73FF"/>
<path d="M84.9885 1.13583L76.3234 18.4346L76.4786 18.5122L85.1438 1.21348L84.9885 1.13583Z" fill="#8B74FF"/>
<path d="M85.1449 1.21322L76.4797 18.512L76.6349 18.5896L85.3001 1.29087L85.1449 1.21322Z" fill="#8A75FF"/>
<path d="M85.299 1.29135L76.6339 18.5901L76.7891 18.6677L85.4543 1.369L85.299 1.29135Z" fill="#8976FF"/>
<path d="M85.4539 1.36801L76.7887 18.6667L76.9439 18.7444L85.6091 1.44566L85.4539 1.36801Z" fill="#8877FF"/>
<path d="M85.6081 1.44442L76.9429 18.7432L77.0981 18.8208L85.7633 1.52207L85.6081 1.44442Z" fill="#8778FF"/>
<path d="M85.7622 1.52255L77.097 18.8213L77.2522 18.8989L85.9174 1.6002L85.7622 1.52255Z" fill="#8679FF"/>
<path d="M85.9185 1.59994L77.2533 18.8987L77.4085 18.9763L86.0737 1.67759L85.9185 1.59994Z" fill="#857AFF"/>
<path d="M86.0742 1.67807L77.4091 18.9768L77.5643 19.0545L86.2295 1.75572L86.0742 1.67807Z" fill="#847BFF"/>
<path d="M86.2284 1.75619L77.5632 19.0549L77.7185 19.1326L86.3837 1.83384L86.2284 1.75619Z" fill="#837CFF"/>
<path d="M86.3833 1.8331L77.7181 19.1318L77.8733 19.2095L86.5385 1.91075L86.3833 1.8331Z" fill="#827DFF"/>
<path d="M86.5388 1.91024L77.8737 19.209L78.0289 19.2866L86.6941 1.98789L86.5388 1.91024Z" fill="#817EFF"/>
<path d="M86.693 1.98837L78.0278 19.2871L78.1831 19.3648L86.8483 2.06602L86.693 1.98837Z" fill="#7F80FF"/>
<path d="M86.8479 2.06503L78.1827 19.3638L78.3379 19.4414L87.0031 2.14268L86.8479 2.06503Z" fill="#7E81FF"/>
<path d="M87.002 2.14315L78.3369 19.4419L78.4921 19.5195L87.1573 2.2208L87.002 2.14315Z" fill="#7D82FF"/>
<path d="M87.1569 2.21981L78.4917 19.5186L78.6469 19.5962L87.3121 2.29746L87.1569 2.21981Z" fill="#7C83FF"/>
<path d="M87.3125 2.29721L78.6473 19.5959L78.8025 19.6736L87.4677 2.37486L87.3125 2.29721Z" fill="#7B84FF"/>
<path d="M87.4682 2.37533L78.803 19.6741L78.9583 19.7517L87.6235 2.45298L87.4682 2.37533Z" fill="#7A85FF"/>
<path d="M87.6231 2.45199L78.9579 19.7507L79.1131 19.8284L87.7783 2.52964L87.6231 2.45199Z" fill="#7986FF"/>
<path d="M87.7772 2.53011L79.1121 19.8289L79.2673 19.9065L87.9325 2.60776L87.7772 2.53011Z" fill="#7887FF"/>
<path d="M87.9328 2.60897L79.2676 19.9077L79.4229 19.9854L88.0881 2.68663L87.9328 2.60897Z" fill="#7788FF"/>
<path d="M88.0877 2.68563L79.4225 19.9844L79.5777 20.062L88.2429 2.76328L88.0877 2.68563Z" fill="#7689FF"/>
<path d="M88.2418 2.76206L79.5767 20.0608L79.7319 20.1384L88.3971 2.83971L88.2418 2.76206Z" fill="#758AFF"/>
<path d="M88.3967 2.83871L79.7315 20.1375L79.8868 20.2151L88.5519 2.91636L88.3967 2.83871Z" fill="#748BFF"/>
<path d="M88.5523 2.91756L79.8871 20.2163L80.0423 20.294L88.7075 2.99522L88.5523 2.91756Z" fill="#738CFF"/>
<path d="M88.7064 2.99569L80.0413 20.2944L80.1965 20.3721L88.8617 3.07334L88.7064 2.99569Z" fill="#728DFF"/>
<path d="M88.8629 3.07259L80.1978 20.3713L80.353 20.449L89.0182 3.15024L88.8629 3.07259Z" fill="#718EFF"/>
<path d="M89.0171 3.14901L80.3519 20.4478L80.5071 20.5254L89.1723 3.22666L89.0171 3.14901Z" fill="#708FFF"/>
<path d="M89.1712 3.22714L80.506 20.5259L80.6613 20.6035L89.3265 3.30479L89.1712 3.22714Z" fill="#6F90FF"/>
<path d="M89.3275 3.30454L80.6624 20.6033L80.8176 20.6809L89.4828 3.38219L89.3275 3.30454Z" fill="#6E91FF"/>
<path d="M89.4816 3.38266L80.8165 20.6814L80.9717 20.759L89.6369 3.46031L89.4816 3.38266Z" fill="#6D92FF"/>
<path d="M89.6358 3.46078L80.9706 20.7595L81.1259 20.8372L89.7911 3.53843L89.6358 3.46078Z" fill="#6C93FF"/>
<path d="M89.7907 3.53744L81.1255 20.8362L81.2807 20.9138L89.9459 3.61509L89.7907 3.53744Z" fill="#6B94FF"/>
<path d="M89.941 3.61255L90.0953 3.68965L81.4695 20.9125H81.2814L81.2766 20.9109L89.941 3.61255Z" fill="#6A95FF"/>
<path d="M90.0954 3.6897L90.2513 3.7668L81.664 20.9126H81.4695L90.0954 3.6897Z" fill="#6996FF"/>
<path d="M90.2513 3.76685L90.4056 3.84395L81.857 20.9126H81.6641L90.2513 3.76685Z" fill="#6897FF"/>
<path d="M90.4056 3.84399L90.5615 3.9227L82.0514 20.9126H81.8569L90.4056 3.84399Z" fill="#6798FF"/>
<path d="M90.5615 3.92261L90.7159 3.99971L82.2444 20.9126H82.0515L90.5615 3.92261Z" fill="#6699FF"/>
<path d="M90.7159 3.99976L90.8702 4.07686L82.4389 20.9126H82.2444L90.7159 3.99976Z" fill="#659AFF"/>
<path d="M90.8702 4.0769L91.0261 4.15401L82.6317 20.9126H82.4388L90.8702 4.0769Z" fill="#649BFF"/>
<path d="M91.0261 4.15381L91.1804 4.23252L82.8263 20.9124H82.6318L91.0261 4.15381Z" fill="#639CFF"/>
<path d="M91.1804 4.23267L91.3348 4.30977L83.0192 20.9126H82.8263L91.1804 4.23267Z" fill="#629DFF"/>
<path d="M91.3347 4.30981L91.4907 4.38692L83.2137 20.9126H83.0192L91.3347 4.30981Z" fill="#619EFF"/>
<path d="M91.4907 4.38672L91.645 4.46382L83.4066 20.9124H83.2137L91.4907 4.38672Z" fill="#609FFF"/>
<path d="M91.645 4.46387L91.8009 4.54258L83.6011 20.9125H83.4066L91.645 4.46387Z" fill="#5FA0FF"/>
<path d="M91.8009 4.54272L91.9552 4.61983L83.794 20.9126H83.6011L91.8009 4.54272Z" fill="#5EA1FF"/>
<path d="M91.9553 4.61963L92.1096 4.69673L83.9885 20.9124H83.794L91.9553 4.61963Z" fill="#5DA2FF"/>
<path d="M92.1095 4.69678L92.2655 4.77388L84.1814 20.9125H83.9885L92.1095 4.69678Z" fill="#5CA3FF"/>
<path d="M92.2655 4.77393L92.4198 4.85103L84.3759 20.9125H84.1814L92.2655 4.77393Z" fill="#5BA4FF"/>
<path d="M92.4198 4.85107L92.5741 4.92978L84.5688 20.9126H84.3759L92.4198 4.85107Z" fill="#5AA5FF"/>
<path d="M92.5741 4.92969L92.73 5.00679L84.7633 20.9125H84.5688L92.5741 4.92969Z" fill="#59A6FF"/>
<path d="M92.7301 5.00684L92.8844 5.08394L84.9562 20.9125H84.7633L92.7301 5.00684Z" fill="#58A7FF"/>
<path d="M92.8844 5.08398L93.0387 5.16109L85.1507 20.9126H84.9562L92.8844 5.08398Z" fill="#57A8FF"/>
<path d="M93.0387 5.16113L93.1946 5.23984L85.3436 20.9126H85.1507L93.0387 5.16113Z" fill="#56A9FF"/>
<path d="M93.1946 5.23975L93.349 5.31685L85.5381 20.9125H85.3436L93.1946 5.23975Z" fill="#55AAFF"/>
<path d="M93.3489 5.31689L93.5048 5.394L85.731 20.9126H85.5381L93.3489 5.31689Z" fill="#54ABFF"/>
<path d="M93.5049 5.39404L93.6592 5.47115L85.9255 20.9126H85.731L93.5049 5.39404Z" fill="#53ACFF"/>
<path d="M93.6592 5.47119L93.8135 5.5499L86.1184 20.9127H85.9255L93.6592 5.47119Z" fill="#52ADFF"/>
<path d="M93.8135 5.5498L93.9694 5.62691L86.3129 20.9126H86.1184L93.8135 5.5498Z" fill="#51AEFF"/>
<path d="M93.9694 5.62695L94.1238 5.70406L86.5058 20.9126H86.3129L93.9694 5.62695Z" fill="#50AFFF"/>
<path d="M94.1238 5.7041L94.2781 5.7812L86.7004 20.9126H86.5059L94.1238 5.7041Z" fill="#4FB0FF"/>
<path d="M94.2781 5.78101L94.434 5.85811L86.8932 20.9124H86.7003L94.2781 5.78101Z" fill="#4EB1FF"/>
<path d="M94.434 5.85815L94.5883 5.93686L87.0878 20.9125H86.8932L94.434 5.85815Z" fill="#4DB2FF"/>
<path d="M94.5883 5.93701L94.7443 6.01411L87.2807 20.9126H87.0878L94.5883 5.93701Z" fill="#4CB3FF"/>
<path d="M94.7442 6.01392L94.8986 6.09102L87.4751 20.9124H87.2806L94.7442 6.01392Z" fill="#4BB4FF"/>
<path d="M94.8986 6.09106L95.0529 6.16817L87.6681 20.9125H87.4752L94.8986 6.09106Z" fill="#4AB5FF"/>
<path d="M95.0529 6.16821L95.2088 6.24692L87.8625 20.9125H87.668L95.0529 6.16821Z" fill="#49B6FF"/>
<path d="M95.2088 6.24683L95.3631 6.32393L88.0555 20.9124H87.8625L95.2088 6.24683Z" fill="#48B7FF"/>
<path d="M95.3632 6.32397L95.5175 6.40108L88.25 20.9125H88.0555L95.3632 6.32397Z" fill="#47B8FF"/>
<path d="M95.5174 6.40112L95.6734 6.47823L88.4428 20.9125H88.2499L95.5174 6.40112Z" fill="#46B9FF"/>
<path d="M95.6734 6.47827L95.8277 6.55537L88.6374 20.9126H88.4429L95.6734 6.47827Z" fill="#45BAFF"/>
<path d="M95.8277 6.55542L95.982 6.63413L88.8319 20.9126H88.6374L95.8277 6.55542Z" fill="#44BBFF"/>
<path d="M95.982 6.63403L96.1379 6.71114L89.0247 20.9125H88.8318L95.982 6.63403Z" fill="#43BCFF"/>
<path d="M96.138 6.71118L96.2923 6.78828L89.2193 20.9126H89.0248L96.138 6.71118Z" fill="#42BDFF"/>
<path d="M96.2923 6.78833L96.4482 6.86543L89.4122 20.9126H89.2193L96.2923 6.78833Z" fill="#41BEFF"/>
<path d="M96.4482 6.86548L96.6025 6.94419L89.6067 20.9127H89.4122L96.4482 6.86548Z" fill="#40BFFF"/>
<path d="M96.6025 6.94409L96.7568 7.02119L89.7996 20.9126H89.6067L96.6025 6.94409Z" fill="#3FC0FF"/>
<path d="M96.7568 7.02124L96.9127 7.09834L89.9941 20.9126H89.7996L96.7568 7.02124Z" fill="#3EC1FF"/>
<path d="M96.9127 7.09839L97.0671 7.17549L90.187 20.9127H89.9941L96.9127 7.09839Z" fill="#3DC2FF"/>
<path d="M97.0671 7.17529L97.2214 7.254L90.3815 20.9125H90.187L97.0671 7.17529Z" fill="#3CC3FF"/>
<path d="M97.2214 7.25415L97.3774 7.33125L90.5744 20.9126H90.3815L97.2214 7.25415Z" fill="#3BC4FF"/>
<path d="M97.3773 7.3313L97.5316 7.4084L90.7689 20.9127H90.5744L97.3773 7.3313Z" fill="#3AC5FF"/>
<path d="M97.5317 7.4082L97.686 7.48531L90.9618 20.9125H90.7689L97.5317 7.4082Z" fill="#39C6FF"/>
<path d="M97.686 7.48535L97.8419 7.56245L91.1563 20.9125H90.9618L97.686 7.48535Z" fill="#38C7FF"/>
<path d="M97.8419 7.5625L97.9962 7.64121L91.3492 20.9125H91.1563L97.8419 7.5625Z" fill="#37C8FF"/>
<path d="M97.9962 7.64111L98.1522 7.71822L91.5437 20.9124H91.3492L97.9962 7.64111Z" fill="#36C9FF"/>
<path d="M98.1521 7.71826L98.3064 7.79536L91.7366 20.9125H91.5437L98.1521 7.71826Z" fill="#35CAFF"/>
<path d="M98.3065 7.79541L98.4608 7.87251L91.9311 20.9125H91.7366L98.3065 7.79541Z" fill="#34CBFF"/>
<path d="M98.4608 7.87256L98.6167 7.95127L92.1241 20.9126H91.9312L98.4608 7.87256Z" fill="#33CCFF"/>
<path d="M98.6167 7.95117L98.771 8.02827L92.3185 20.9125H92.124L98.6167 7.95117Z" fill="#32CDFF"/>
<path d="M98.771 8.02832L98.9254 8.10542L92.5114 20.9125H92.3185L98.771 8.02832Z" fill="#31CEFF"/>
<path d="M98.9253 8.10547L99.0813 8.18257L92.7059 20.9126H92.5114L98.9253 8.10547Z" fill="#30CFFF"/>
<path d="M99.0813 8.18262L99.2356 8.26133L92.8988 20.9126H92.7059L99.0813 8.18262Z" fill="#2FD0FF"/>
<path d="M99.2356 8.26123L99.3915 8.33833L93.0934 20.9125H92.8989L99.2356 8.26123Z" fill="#2ED1FF"/>
<path d="M99.3915 8.33838L99.5458 8.41548L93.2862 20.9126H93.0933L99.3915 8.33838Z" fill="#2DD2FF"/>
<path d="M99.5458 8.41553L99.7002 8.49263L93.4808 20.9126H93.2863L99.5458 8.41553Z" fill="#2CD3FF"/>
<path d="M99.7002 8.49268L99.8561 8.56978L93.6737 20.9127H93.4808L99.7002 8.49268Z" fill="#2BD4FF"/>
<path d="M99.8561 8.56958L100.01 8.64829L93.8682 20.9125H93.6736L99.8561 8.56958Z" fill="#2AD5FF"/>
<path d="M100.01 8.64844L100.165 8.72554L94.0611 20.9126H93.8682L100.01 8.64844Z" fill="#29D6FF"/>
<path d="M100.165 8.72559L100.321 8.80269L94.2555 20.9127H94.061L100.165 8.72559Z" fill="#28D7FF"/>
<path d="M100.321 8.80249L100.475 8.87959L94.4485 20.9125H94.2556L100.321 8.80249Z" fill="#27D8FF"/>
<path d="M100.475 8.87964L100.629 8.95835L94.643 20.9125H94.4485L100.475 8.87964Z" fill="#26D9FF"/>
<path d="M100.629 8.9585L100.785 9.0356L94.8359 20.9127H94.643L100.629 8.9585Z" fill="#25DAFF"/>
<path d="M100.785 9.0354L100.94 9.1125L95.0304 20.9125H94.8359L100.785 9.0354Z" fill="#24DBFF"/>
<path d="M100.94 9.11255L101.095 9.18965L95.2233 20.9125H95.0304L100.94 9.11255Z" fill="#23DCFF"/>
<path d="M101.095 9.1897L101.25 9.26841L95.4178 20.9125H95.2233L101.095 9.1897Z" fill="#22DDFF"/>
<path d="M101.25 9.26831L101.404 9.34541L95.6107 20.9125H95.4178L101.25 9.26831Z" fill="#21DEFF"/>
<path d="M101.404 9.34546L101.56 9.42256L95.8052 20.9125H95.6107L101.404 9.34546Z" fill="#20DFFF"/>
<path d="M101.56 9.42261L101.714 9.49971L95.9981 20.9125H95.8052L101.56 9.42261Z" fill="#1FE0FF"/>
<path d="M101.714 9.49976L101.869 9.57686L96.1926 20.9126H95.9981L101.714 9.49976Z" fill="#1EE1FF"/>
<path d="M101.869 9.5769L102.025 9.65561L96.3855 20.9126H96.1926L101.869 9.5769Z" fill="#1DE2FF"/>
<path d="M102.025 9.65552L102.179 9.73262L96.58 20.9125H96.3855L102.025 9.65552Z" fill="#1CE3FF"/>
<path d="M102.179 9.73267L102.333 9.80977L96.7729 20.9126H96.58L102.179 9.73267Z" fill="#1BE4FF"/>
<path d="M102.333 9.80981L102.489 9.88692L96.9674 20.9126H96.7729L102.333 9.80981Z" fill="#1AE5FF"/>
<path d="M102.489 9.88672L102.643 9.96543L97.1603 20.9124H96.9674L102.489 9.88672Z" fill="#19E6FF"/>
<path d="M102.644 9.96558L102.799 10.0427L97.3548 20.9126H97.1603L102.644 9.96558Z" fill="#18E7FF"/>
<path d="M102.799 10.0427L102.928 10.107V10.1712L97.5477 20.9126H97.3548L102.799 10.0427Z" fill="#17E8FF"/>
<path d="M102.928 10.5567L97.7422 20.9125H97.5477L102.928 10.1711V10.5567Z" fill="#16E9FF"/>
<path d="M102.928 10.9438L97.9352 20.9125H97.7422L102.928 10.5566V10.9438Z" fill="#15EAFF"/>
<path d="M102.928 11.331L98.1296 20.9126H97.9351L102.928 10.9438V11.331Z" fill="#14EBFF"/>
<path d="M102.928 11.7179L98.3225 20.9125H98.1296L102.928 11.3308V11.7179Z" fill="#13ECFF"/>
<path d="M102.928 12.1051L98.517 20.9125H98.3225L102.928 11.718V12.1051Z" fill="#12EDFF"/>
<path d="M102.928 12.4907L98.7099 20.9126H98.517L102.928 12.1052V12.4907Z" fill="#11EEFF"/>
<path d="M102.928 12.8778L98.9045 20.9126H98.71L102.928 12.4907V12.8778Z" fill="#10EFFF"/>
<path d="M102.928 13.2648L99.0974 20.9124H98.9045L102.928 12.8777V13.2648Z" fill="#0FF0FF"/>
<path d="M102.928 13.652L99.2919 20.9125H99.0974L102.928 13.2649V13.652Z" fill="#0EF1FF"/>
<path d="M102.928 14.0376L99.4848 20.9126H99.2919L102.928 13.6521V14.0376Z" fill="#0DF2FF"/>
<path d="M102.928 14.4247L99.6793 20.9126H99.4847L102.928 14.0376V14.4247Z" fill="#0CF3FF"/>
<path d="M102.928 14.8117L99.8722 20.9124H99.6793L102.928 14.4246V14.8117Z" fill="#0BF4FF"/>
<path d="M102.928 15.1989L100.067 20.9125H99.8721L102.928 14.8118V15.1989Z" fill="#0AF5FF"/>
<path d="M102.928 15.5861L100.26 20.9126H100.067L102.928 15.199V15.5861Z" fill="#09F6FF"/>
<path d="M102.928 15.9715L100.454 20.9125H100.26L102.928 15.5859V15.9715Z" fill="#08F7FF"/>
<path d="M102.928 16.3586L100.647 20.9124H100.454L102.928 15.9714V16.3586Z" fill="#07F8FF"/>
<path d="M102.928 16.7458L100.841 20.9125H100.647L102.928 16.3586V16.7458Z" fill="#06F9FF"/>
<path d="M102.928 17.133L101.034 20.9126H100.841L102.928 16.7458V17.133Z" fill="#05FAFF"/>
<path d="M102.928 17.5199L101.229 20.9125H101.034L102.928 17.1328V17.5199Z" fill="#04FBFF"/>
<path d="M102.928 17.9055L101.422 20.9125H101.229L102.928 17.52V17.9055Z" fill="#03FCFF"/>
<path d="M102.928 18.2926L101.616 20.9125H101.422L102.928 17.9055V18.2926Z" fill="#02FDFF"/>
<path d="M102.928 18.6798L101.809 20.9126H101.616L102.928 18.2927V18.6798Z" fill="#01FEFF"/>
<path d="M102.928 19.0668L102.004 20.9125H101.809L102.928 18.6797V19.0668Z" fill="#00FFFF"/>
<path d="M102.004 20.9125L102.928 19.0669V20.9125H102.004Z" fill="#00FFFF"/>
</g>
</g>
<defs>
<clipPath id="clip0_27_343">
<rect width="164" height="91.3958" fill="white"/>
</clipPath>
</defs>
</svg>
