<svg width="164" height="92" viewBox="0 0 164 92" fill="none" xmlns="http://www.w3.org/2000/svg">
<g clip-path="url(#clip0_27_207)">
<path d="M0 48.3597H21.1723V52.777H13.0898V74.345H8.0841V52.777H0V48.3597Z" fill="white"/>
<path d="M28.0878 55.3568C29.2372 54.6757 30.5778 54.3239 32.1114 54.2982V58.9758C30.0586 58.8521 28.4222 59.3276 27.1989 60.4054C25.9756 61.4817 25.3631 62.9354 25.3631 64.7666V74.3434H20.5422V54.4829H25.3631V58.306C26.0302 57.0193 26.9385 56.0362 28.0878 55.3552V55.3568Z" fill="white"/>
<path d="M46.7203 74.345V71.9323C46.0274 72.7981 45.1385 73.4535 44.0502 73.9001C42.9619 74.345 41.7145 74.5683 40.3047 74.5683C38.895 74.5683 37.7022 74.3032 36.6525 73.7699C35.6012 73.2383 34.7926 72.5026 34.2236 71.5613C33.6545 70.6216 33.37 69.5694 33.37 68.4065C33.37 66.5496 34.0242 65.0958 35.336 64.0453C36.6461 62.9932 38.4995 62.4551 40.8979 62.431H46.6817V61.9121C46.6817 60.7492 46.2975 59.8464 45.5323 59.2023C44.7655 58.5598 43.6531 58.2369 42.1951 58.2369C40.316 58.2369 38.3516 58.8553 36.2989 60.0922L34.5563 56.7511C36.114 55.8852 37.5286 55.2604 38.8017 54.8765C40.0749 54.4926 41.5634 54.3014 43.269 54.3014C45.8393 54.3014 47.8359 54.9199 49.2569 56.1583C50.6779 57.3968 51.4013 59.1284 51.4254 61.3547L51.4624 74.3466H46.7154L46.7203 74.345ZM45.0147 69.8714C46.0033 69.216 46.5595 68.4049 46.6833 67.4395V65.6581H41.6775C40.3915 65.6581 39.4463 65.8492 38.8403 66.2331C38.2343 66.617 37.9321 67.2419 37.9321 68.1077C37.9321 68.9735 38.2471 69.6176 38.8773 70.1124C39.5074 70.6071 40.3658 70.8545 41.4541 70.8545C42.8382 70.8545 44.0245 70.5268 45.0131 69.8698L45.0147 69.8714Z" fill="white"/>
<path d="M72.0077 56.3591C73.3179 57.7325 73.9721 59.5959 73.9721 61.9459V74.345H69.1143V63.3578C69.1143 61.9716 68.7188 60.8761 67.9279 60.0729C67.137 59.2698 66.0616 58.8666 64.7017 58.8666C63.0942 58.8923 61.8275 59.4368 60.9015 60.5002C59.974 61.5652 59.5111 62.9257 59.5111 64.5835V74.3466H54.6902V54.4862H59.5111V58.1984C60.871 55.6491 63.2437 54.3512 66.6307 54.2998C68.9037 54.2998 70.696 54.9873 72.0061 56.3607L72.0077 56.3591Z" fill="white"/>
<path d="M87.6359 58.5309C86.6103 58.2096 85.6651 58.049 84.7987 58.049C83.9837 58.049 83.3342 58.1919 82.852 58.4762C82.3697 58.7606 82.1286 59.2007 82.1286 59.7934C82.1286 60.3861 82.4308 60.8889 83.0368 61.223C83.6429 61.5572 84.5993 61.9105 85.911 62.2816C87.2951 62.7025 88.4332 63.1169 89.3221 63.5249C90.2127 63.9329 90.9843 64.5401 91.6402 65.3448C92.2944 66.1496 92.6223 67.2066 92.6223 68.5189C92.6223 70.4497 91.8813 71.9339 90.3976 72.9732C88.9138 74.0125 87.0475 74.5329 84.7987 74.5329C83.2651 74.5329 81.7701 74.292 80.3121 73.8085C78.8525 73.3266 77.618 72.6391 76.6036 71.7476L78.2722 68.3695C79.1628 69.1373 80.2253 69.7381 81.4615 70.1702C82.6977 70.6039 83.8711 70.8192 84.9835 70.8192C85.8741 70.8192 86.583 70.6649 87.1151 70.3549C87.6471 70.0449 87.9124 69.5823 87.9124 68.9623C87.9124 68.2699 87.6037 67.7495 86.9848 67.4041C86.366 67.0572 85.3661 66.6749 83.982 66.254C82.6478 65.8589 81.5596 65.4685 80.7188 65.0846C79.8781 64.7007 79.1483 64.1192 78.531 63.3402C77.9121 62.5611 77.6035 61.5395 77.6035 60.2769C77.6035 58.322 78.314 56.8314 79.735 55.8033C81.1561 54.7769 82.942 54.2629 85.0928 54.2629C86.4029 54.2629 87.6938 54.4492 88.9685 54.8203C90.2416 55.1913 91.3717 55.7118 92.3603 56.38L90.6178 59.8689C89.6533 59.3003 88.6583 58.8553 87.6327 58.5325L87.6359 58.5309Z" fill="white"/>
<path d="M102.986 51.3667C102.504 51.7876 102.262 52.4188 102.262 53.2605V55.3022H107.231V58.828H102.262V74.345H97.4416V58.828H94.8455V55.3022H97.4416V53.4083C97.4416 51.9482 97.7631 50.7049 98.4061 49.6769C99.0491 48.6504 99.9075 47.8762 100.983 47.3573C102.058 46.8369 103.225 46.5783 104.487 46.5783C105.749 46.5783 106.934 46.8626 108.12 47.4328L107.268 51.3314C106.28 50.9362 105.463 50.737 104.822 50.737C104.081 50.737 103.468 50.9475 102.986 51.3683V51.3667Z" fill="white"/>
<path d="M124.936 57.0466C126.531 58.8537 127.328 61.3901 127.328 64.6573C127.328 65.3015 127.315 65.7834 127.291 66.1046H112.645C112.967 67.515 113.627 68.6233 114.629 69.4265C115.63 70.2312 116.86 70.6328 118.318 70.6328C119.331 70.6328 120.302 70.4417 121.229 70.0578C122.157 69.6738 122.965 69.1245 123.658 68.4065L126.254 71.1163C125.266 72.2054 124.06 73.0471 122.639 73.6398C121.218 74.2342 119.641 74.5313 117.911 74.5313C115.884 74.5313 114.098 74.1105 112.554 73.2688C111.009 72.4287 109.816 71.2464 108.975 69.7236C108.135 68.2025 107.715 66.4516 107.715 64.471C107.715 62.4904 108.141 60.7347 108.995 59.1991C109.848 57.665 111.039 56.4699 112.573 55.617C114.105 54.7624 115.847 54.3368 117.801 54.3368C120.964 54.3368 123.343 55.2411 124.938 57.0466H124.936ZM122.916 62.8743C122.866 61.4142 122.383 60.2512 121.469 59.3854C120.554 58.5196 119.342 58.0859 117.834 58.0859C116.425 58.0859 115.245 58.5132 114.293 59.3661C113.341 60.2207 112.755 61.3885 112.531 62.8743H122.914H122.916Z" fill="white"/>
<path d="M138.174 55.3568C139.323 54.6757 140.664 54.3239 142.198 54.2982V58.9758C140.146 58.8521 138.508 59.3276 137.285 60.4054C136.062 61.4817 135.449 62.9354 135.449 64.7666V74.3434H130.628V54.4829H135.449V58.306C136.116 57.0193 137.025 56.0362 138.174 55.3552V55.3568Z" fill="white"/>
<path d="M159.012 55.5977C160.581 56.4394 161.806 57.6217 162.683 59.1429C163.561 60.664 164 62.4165 164 64.3955C164 66.3745 163.561 68.1704 162.683 69.7044C161.806 71.2384 160.582 72.4271 159.012 73.2672C157.441 74.1089 155.631 74.5297 153.58 74.5297C151.529 74.5297 149.674 74.1089 148.092 73.2672C146.51 72.4271 145.279 71.2384 144.403 69.7044C143.525 68.1704 143.086 66.4002 143.086 64.3955C143.086 62.3908 143.525 60.664 144.403 59.1429C145.281 57.6217 146.51 56.4394 148.092 55.5977C149.674 54.756 151.503 54.3352 153.58 54.3352C155.657 54.3352 157.443 54.756 159.012 55.5977ZM149.502 60.1259C148.464 61.2391 147.944 62.6864 147.944 64.4694C147.944 66.2524 148.464 67.6997 149.502 68.8129C150.54 69.9261 151.899 70.4834 153.58 70.4834C155.262 70.4834 156.546 69.9277 157.584 68.8129C158.623 67.6997 159.142 66.2524 159.142 64.4694C159.142 62.6864 158.623 61.2391 157.584 60.1259C156.546 59.0128 155.212 58.4554 153.58 58.4554C151.949 58.4554 150.54 59.0112 149.502 60.1259Z" fill="white"/>
<path d="M61.3356 86.0213C61.3356 88.0148 59.8486 89.2211 57.3892 89.2211H55.0503V92H53.6984V82.8232H57.3892C59.8486 82.8232 61.3356 84.0295 61.3356 86.0229V86.0213ZM59.9837 86.0213C59.9837 84.7106 59.0787 83.9636 57.3474 83.9636H55.0487V88.0806H57.3474C59.077 88.0806 59.9837 87.3337 59.9837 86.0229V86.0213Z" fill="white"/>
<path d="M73.0285 92L70.987 89.1809C70.7973 89.1938 70.5948 89.2066 70.3922 89.2066H68.0533V91.9984H66.7014V82.8215H70.3922C72.8517 82.8215 74.3386 84.0279 74.3386 86.0213C74.3386 87.4381 73.5815 88.4597 72.2569 88.9191L74.501 92H73.0269H73.0285ZM72.9883 86.0213C72.9883 84.7106 72.0833 83.9636 70.352 83.9636H68.0533V88.0935H70.352C72.0817 88.0935 72.9883 87.3337 72.9883 86.0213Z" fill="white"/>
<path d="M79.907 82.8215H81.2589V91.9984H79.907V82.8215Z" fill="white"/>
<path d="M96.2504 92L96.2375 85.3129L92.8184 90.8852H92.1963L88.7755 85.3531V92H87.4783V82.8232H88.5874L92.5338 89.2741L96.4272 82.8232H97.5364L97.5492 92H96.252H96.2504Z" fill="white"/>
<path d="M110.633 90.8595V92H103.766V82.8232H110.443V83.9636H105.117V86.7827H109.863V87.8975H105.117V90.8611H110.633V90.8595Z" fill="white"/>
<path d="M82.9613 21.2178L82 20.2572L80.4102 21.8459L70.283 31.9624L82 43.6693L93.7154 31.9624L82.9613 21.2162V21.2178ZM73.4208 31.964L81.9775 23.4136L82 23.3911L82.045 23.4361L90.576 31.964L82 40.5337L73.4208 31.964Z" fill="#3D3DFF"/>
<path d="M63.9735 2.24401L61.7535 0.0256958L60.1605 1.61434L50.0365 11.7309L61.7535 23.4377L73.4465 11.7534L73.469 11.7309L63.9735 2.24241V2.24401ZM61.7535 20.3022L53.1743 11.7325L61.731 3.18531L61.7535 3.16283L70.3295 11.7325L70.307 11.755L61.7535 20.3022Z" fill="#3D3DFF"/>
<path d="M102.246 0.0224915L92.124 10.1391L90.5535 11.7068L90.531 11.7293L102.246 23.4361L103.839 21.8475L113.963 11.7309L102.246 0.0224915ZM102.269 20.2765L102.246 20.299L93.6705 11.7293L93.6929 11.7068L102.246 3.15962L110.826 11.7293L102.269 20.2765Z" fill="#3D3DFF"/>
<path d="M102.269 20.254L93.6928 11.6843L92.1239 10.1166L81.9983 0H61.7487L60.1556 1.58864L70.3022 11.7277L71.8727 13.2955L81.9967 23.412H102.243L103.836 21.8234L102.266 20.254H102.269ZM82.9178 21.1953L63.9236 2.21832H81.0788L100.071 21.1969H82.9162L82.9178 21.1953Z" fill="#3D3DFF"/>
</g>
<defs>
<clipPath id="clip0_27_207">
<rect width="164" height="92" fill="white"/>
</clipPath>
</defs>
</svg>
