<svg width="164" height="93" viewBox="0 0 164 93" fill="none" xmlns="http://www.w3.org/2000/svg">
<g clip-path="url(#clip0_27_1916)">
<path d="M0 48.3953H21.1723V52.8159H13.0898V74.3997H8.0841V52.8159H0V48.3953Z" fill="white"/>
<path d="M28.0878 55.3975C29.2372 54.716 30.5778 54.3639 32.1114 54.3382V59.0192C30.0586 58.8954 28.4222 59.3713 27.1989 60.4499C25.9756 61.5269 25.3631 62.9817 25.3631 64.8143V74.3981H20.5422V54.5231H25.3631V58.3489C26.0302 57.0613 26.9385 56.0775 28.0878 55.3959V55.3975Z" fill="white"/>
<path d="M46.7203 74.3997V71.9853C46.0274 72.8517 45.1385 73.5076 44.0502 73.9544C42.9619 74.3997 41.7145 74.6232 40.3047 74.6232C38.895 74.6232 37.7022 74.3579 36.6525 73.8242C35.6012 73.2921 34.7926 72.5559 34.2236 71.6139C33.6545 70.6735 33.37 69.6206 33.37 68.4568C33.37 66.5985 34.0242 65.1437 35.336 64.0924C36.6461 63.0395 38.4995 62.501 40.8979 62.4769H46.6817V61.9577C46.6817 60.7939 46.2975 59.8904 45.5323 59.2458C44.7655 58.6028 43.6531 58.2797 42.1951 58.2797C40.316 58.2797 38.3516 58.8986 36.2989 60.1364L34.5563 56.7928C36.114 55.9264 37.5286 55.301 38.8017 54.9169C40.0749 54.5327 41.5634 54.3414 43.269 54.3414C45.8393 54.3414 47.8359 54.9603 49.2569 56.1996C50.6779 57.439 51.4013 59.1719 51.4254 61.3999L51.4624 74.4013H46.7154L46.7203 74.3997ZM45.0147 69.9228C46.0033 69.267 46.5595 68.4552 46.6833 67.4891V65.7064H41.6775C40.3915 65.7064 39.4463 65.8977 38.8403 66.2819C38.2343 66.666 37.9321 67.2914 37.9321 68.1578C37.9321 69.0242 38.2471 69.6689 38.8773 70.164C39.5074 70.6591 40.3658 70.9066 41.4541 70.9066C42.8382 70.9066 44.0245 70.5787 45.0131 69.9212L45.0147 69.9228Z" fill="white"/>
<path d="M72.0077 56.4006C73.3179 57.775 73.9721 59.6397 73.9721 61.9915V74.3997H69.1143V63.4045C69.1143 62.0172 68.7188 60.9209 67.9279 60.1171C67.137 59.3134 66.0616 58.9099 64.7017 58.9099C63.0942 58.9356 61.8275 59.4806 60.9015 60.5447C59.974 61.6105 59.5111 62.972 59.5111 64.631V74.4013H54.6902V54.5263H59.5111V58.2412C60.871 55.6901 63.2437 54.3912 66.6307 54.3398C68.9037 54.3398 70.696 55.0278 72.0061 56.4022L72.0077 56.4006Z" fill="white"/>
<path d="M87.6359 58.5739C86.6103 58.2524 85.6651 58.0917 84.7987 58.0917C83.9837 58.0917 83.3342 58.2347 82.852 58.5193C82.3697 58.8038 82.1286 59.2442 82.1286 59.8374C82.1286 60.4306 82.4308 60.9337 83.0368 61.2681C83.6429 61.6024 84.5993 61.9561 85.911 62.3274C87.2951 62.7486 88.4332 63.1633 89.3221 63.5716C90.2127 63.9799 90.9843 64.5876 91.6402 65.3929C92.2944 66.1983 92.6223 67.256 92.6223 68.5693C92.6223 70.5015 91.8813 71.9869 90.3976 73.0269C88.9138 74.067 87.0475 74.5878 84.7987 74.5878C83.2651 74.5878 81.7701 74.3467 80.3121 73.8628C78.8525 73.3806 77.618 72.6926 76.6036 71.8004L78.2722 68.4198C79.1628 69.1882 80.2253 69.7894 81.4615 70.2218C82.6977 70.6559 83.8711 70.8713 84.9835 70.8713C85.8741 70.8713 86.583 70.7169 87.1151 70.4067C87.6471 70.0964 87.9124 69.6335 87.9124 69.013C87.9124 68.3202 87.6037 67.7993 86.9848 67.4537C86.366 67.1065 85.3661 66.7239 83.982 66.3028C82.6478 65.9073 81.5596 65.5167 80.7188 65.1325C79.8781 64.7483 79.1483 64.1664 78.531 63.3868C77.9121 62.6071 77.6035 61.5848 77.6035 60.3213C77.6035 58.3649 78.314 56.8732 79.735 55.8444C81.1561 54.8172 82.942 54.3028 85.0928 54.3028C86.4029 54.3028 87.6938 54.4893 88.9685 54.8606C90.2416 55.2319 91.3717 55.7528 92.3603 56.4215L90.6178 59.913C89.6533 59.3439 88.6583 58.8986 87.6327 58.5755L87.6359 58.5739Z" fill="white"/>
<path d="M102.986 51.4045C102.504 51.8257 102.262 52.4574 102.262 53.2997V55.3429H107.231V58.8713H102.262V74.3997H97.4416V58.8713H94.8455V55.3429H97.4416V53.4476C97.4416 51.9864 97.7631 50.7422 98.4061 49.7134C99.0491 48.6862 99.9075 47.9114 100.983 47.3922C102.058 46.8714 103.225 46.6125 104.487 46.6125C105.749 46.6125 106.934 46.8971 108.12 47.4677L107.268 51.3691C106.28 50.9737 105.463 50.7744 104.822 50.7744C104.081 50.7744 103.468 50.9849 102.986 51.4061V51.4045Z" fill="white"/>
<path d="M124.936 57.0886C126.531 58.8971 127.328 61.4353 127.328 64.7049C127.328 65.3495 127.315 65.8318 127.291 66.1533H112.645C112.967 67.5647 113.627 68.6738 114.629 69.4776C115.63 70.2829 116.86 70.6848 118.318 70.6848C119.331 70.6848 120.302 70.4935 121.229 70.1093C122.157 69.7252 122.965 69.1754 123.658 68.4568L126.254 71.1687C125.266 72.2586 124.06 73.1009 122.639 73.6941C121.218 74.2888 119.641 74.5862 117.911 74.5862C115.884 74.5862 114.098 74.1651 112.554 73.3227C111.009 72.482 109.816 71.2989 108.975 69.775C108.135 68.2527 107.715 66.5005 107.715 64.5185C107.715 62.5364 108.141 60.7794 108.995 59.2427C109.848 57.7075 111.039 56.5115 112.573 55.6579C114.105 54.8028 115.847 54.3768 117.801 54.3768C120.964 54.3768 123.343 55.2818 124.938 57.0886H124.936ZM122.916 62.9206C122.866 61.4594 122.383 60.2956 121.469 59.4291C120.554 58.5627 119.342 58.1287 117.834 58.1287C116.425 58.1287 115.245 58.5563 114.293 59.4098C113.341 60.265 112.755 61.4337 112.531 62.9206H122.914H122.916Z" fill="white"/>
<path d="M138.174 55.3975C139.323 54.716 140.664 54.3639 142.198 54.3382V59.0192C140.146 58.8954 138.508 59.3713 137.285 60.4499C136.062 61.5269 135.449 62.9817 135.449 64.8143V74.3981H130.628V54.5231H135.449V58.3489C136.116 57.0613 137.025 56.0775 138.174 55.3959V55.3975Z" fill="white"/>
<path d="M159.012 55.6386C160.581 56.4809 161.806 57.6641 162.683 59.1864C163.561 60.7087 164 62.4624 164 64.4429C164 66.4233 163.561 68.2205 162.683 69.7556C161.806 71.2908 160.582 72.4804 159.012 73.3211C157.441 74.1634 155.631 74.5846 153.58 74.5846C151.529 74.5846 149.674 74.1634 148.092 73.3211C146.51 72.4804 145.279 71.2908 144.403 69.7556C143.525 68.2205 143.086 66.449 143.086 64.4429C143.086 62.4367 143.525 60.7087 144.403 59.1864C145.281 57.6641 146.51 56.4809 148.092 55.6386C149.674 54.7963 151.503 54.3751 153.58 54.3751C155.657 54.3751 157.443 54.7963 159.012 55.6386ZM149.502 60.1701C148.464 61.2841 147.944 62.7325 147.944 64.5168C147.944 66.3011 148.464 67.7495 149.502 68.8635C150.54 69.9775 151.899 70.5353 153.58 70.5353C155.262 70.5353 156.546 69.9791 157.584 68.8635C158.623 67.7495 159.142 66.3011 159.142 64.5168C159.142 62.7325 158.623 61.2841 157.584 60.1701C156.546 59.0561 155.212 58.4983 153.58 58.4983C151.949 58.4983 150.54 59.0545 149.502 60.1701Z" fill="white"/>
<path d="M42.5022 82.8825L38.3517 92.0661H37.0142L32.8508 82.8825H34.3104L37.7167 90.4265L41.1503 82.8825H42.5022Z" fill="white"/>
<path d="M53.9524 90.9264V92.0678H47.0852V82.8841H53.7627V84.0255H48.4371V86.8466H53.1824V87.9622H48.4371V90.928H53.9524V90.9264Z" fill="white"/>
<path d="M67.6579 82.8825V92.0661H66.5487L60.8711 85.2166V92.0661H59.5192V82.8825H60.6283L66.306 89.7321V82.8825H67.6579Z" fill="white"/>
<path d="M75.7549 84.0255H72.511V82.8841H80.3379V84.0255H77.094V92.0678H75.7549V84.0255Z" fill="white"/>
<path d="M84.9337 88.1053V82.8841H86.2856V88.0538C86.2856 90.0873 87.2453 91.0052 88.9492 91.0052C90.6532 91.0052 91.6257 90.0873 91.6257 88.0538V82.8841H92.9374V88.1053C92.9374 90.7689 91.4377 92.1722 88.9364 92.1722C86.4351 92.1722 84.9353 90.7689 84.9353 88.1053H84.9337Z" fill="white"/>
<path d="M105.412 92.0677L103.37 89.2466C103.18 89.2594 102.978 89.2723 102.775 89.2723H100.436V92.0661H99.0845V82.8825H102.775C105.235 82.8825 106.722 84.0897 106.722 86.0846C106.722 87.5025 105.965 88.5248 104.64 88.9846L106.884 92.0677H105.41H105.412ZM105.371 86.0846C105.371 84.7729 104.466 84.0254 102.735 84.0254H100.436V88.1583H102.735C104.465 88.1583 105.371 87.398 105.371 86.0846Z" fill="white"/>
<path d="M119.159 90.9264V92.0678H112.292V82.8841H118.969V84.0255H113.644V86.8466H118.389V87.9622H113.644V90.928H119.159V90.9264Z" fill="white"/>
<path d="M123.862 91.0181L124.362 89.9941C125.065 90.6114 126.269 91.0566 127.484 91.0566C129.119 91.0566 129.823 90.4394 129.823 89.6404C129.823 87.3964 124.091 88.8142 124.091 85.4031C124.091 83.9869 125.226 82.7796 127.714 82.7796C128.823 82.7796 129.971 83.0674 130.755 83.593L130.31 84.6427C129.485 84.1315 128.553 83.8952 127.714 83.8952C126.105 83.8952 125.415 84.5511 125.415 85.3516C125.415 87.5957 131.146 86.1907 131.146 89.5633C131.146 90.9666 129.984 92.1738 127.483 92.1738C126.036 92.1738 124.616 91.7012 123.859 91.0197L123.862 91.0181Z" fill="white"/>
<path d="M82.9613 21.2334L82 20.2722L80.4102 21.862L70.283 31.986L82 43.7014L93.7154 31.986L82.9613 21.2318V21.2334ZM73.4208 31.9876L81.9775 23.4309L82 23.4084L82.045 23.4534L90.576 31.9876L82 40.5636L73.4208 31.9876Z" fill="#3D3DFF"/>
<path d="M63.9735 2.24565L61.7535 0.0256958L60.1605 1.61551L50.0365 11.7395L61.7535 23.455L73.4465 11.762L73.469 11.7395L63.9735 2.24404V2.24565ZM61.7535 20.3171L53.1743 11.7411L61.731 3.18764L61.7535 3.16514L70.3295 11.7411L70.307 11.7636L61.7535 20.3171Z" fill="#3D3DFF"/>
<path d="M102.246 0.022522L92.124 10.1465L90.5535 11.7155L90.531 11.738L102.246 23.4534L103.839 21.8636L113.963 11.7396L102.246 0.022522ZM102.269 20.2914L102.246 20.3139L93.6705 11.738L93.6929 11.7155L102.246 3.16196L110.826 11.738L102.269 20.2914Z" fill="#3D3DFF"/>
<path d="M102.269 20.2689L93.6928 11.6929L92.1239 10.124L81.9983 0H61.7487L60.1556 1.58981L70.3022 11.7363L71.8727 13.3052L81.9967 23.4293H102.243L103.836 21.8394L102.266 20.2689H102.269ZM82.9178 21.2109L63.9236 2.21995H81.0788L100.071 21.2125H82.9162L82.9178 21.2109Z" fill="#3D3DFF"/>
</g>
<defs>
<clipPath id="clip0_27_1916">
<rect width="164" height="92.1722" fill="white"/>
</clipPath>
</defs>
</svg>
