<svg width="220" height="123" viewBox="0 0 220 123" fill="none" xmlns="http://www.w3.org/2000/svg">
<path d="M4.35645 65.4564H31.6153V71.2301H21.2077V99.4186H14.7629V71.2301H4.35645V65.4564Z" fill="white"/>
<path d="M40.5194 74.6014C42.0963 73.6855 43.883 73.2085 45.6992 73.2184V79.332C44.5754 79.1956 43.436 79.2908 42.3491 79.6117C41.2622 79.9327 40.2501 80.4729 39.3731 81.2001C38.5874 81.9123 37.9676 82.7935 37.5588 83.7795C37.15 84.7656 36.9624 85.8318 37.0098 86.9007V99.4137H30.7993V73.4609H37.0098V78.4583C37.7943 76.8593 39.012 75.5212 40.5194 74.6014V74.6014Z" fill="white"/>
<path d="M64.5076 99.4189V96.2652C63.6001 97.4098 62.4161 98.2957 61.0712 98.8365C59.535 99.444 57.8968 99.7408 56.2487 99.7102C54.622 99.7456 53.0103 99.388 51.5461 98.667C50.2536 98.0283 49.1684 97.0265 48.419 95.7802C47.6825 94.5362 47.3022 93.1081 47.3208 91.6565C47.2712 90.571 47.4745 89.4889 47.9141 88.4983C48.3537 87.5078 49.0174 86.6366 49.8508 85.9559C51.9369 84.4554 54.459 83.712 57.0114 83.8453H64.4587V83.1654C64.4946 82.4992 64.3799 81.8334 64.1234 81.2192C63.8669 80.605 63.4754 80.0586 62.979 79.6219C61.7373 78.7004 60.2156 78.2538 58.6818 78.3607C55.9805 78.4475 53.3546 79.2868 51.0907 80.7868L48.8473 76.4206C50.5791 75.4098 52.4114 74.5883 54.3136 73.97C56.1853 73.4373 58.1232 73.184 60.0666 73.2181C63.376 73.2181 65.9459 74.0269 67.7763 75.6444C68.7041 76.4986 69.4353 77.55 69.918 78.724C70.4006 79.898 70.6229 81.1656 70.5689 82.4368L70.6169 99.4179L64.5076 99.4189ZM62.3111 93.5722C62.88 93.2391 63.3682 92.7808 63.7401 92.2308C64.1119 91.6809 64.3578 91.0533 64.4597 90.3941V88.0687H58.0203C56.7584 87.9796 55.4964 88.2394 54.3682 88.8206C53.9756 89.0853 53.66 89.4522 53.4544 89.8831C53.2488 90.3139 53.1606 90.7928 53.199 91.27C53.181 91.7738 53.282 92.2746 53.4938 92.7305C53.7055 93.1864 54.0218 93.584 54.416 93.89C55.3819 94.5861 56.5516 94.9285 57.7338 94.8612C59.352 94.9058 60.9462 94.4569 62.3111 93.5722V93.5722Z" fill="white"/>
<path d="M97.0658 75.9115C98.8265 77.9094 99.7363 80.5351 99.5958 83.2133V99.4181H93.3417V85.0593C93.3833 84.2763 93.2696 83.4928 93.0076 82.7554C92.7455 82.0179 92.3404 81.3414 91.8163 80.7661C91.2672 80.2281 90.6152 79.8105 89.9007 79.5392C89.1862 79.268 88.4245 79.1488 87.6628 79.1892C86.7432 79.16 85.8286 79.336 84.9831 79.7049C84.1377 80.0738 83.3821 80.6265 82.7696 81.3242C81.541 82.8155 80.9029 84.7181 80.9794 86.6615V99.4214H74.7688V73.461H80.9794V78.3122C82.73 74.9813 85.7855 73.2834 90.146 73.2185C91.4206 73.1501 92.6952 73.3544 93.8873 73.8183C95.0793 74.2822 96.1621 74.9954 97.0658 75.9115Z" fill="white"/>
<path d="M117.187 78.7494C116.008 78.3528 114.777 78.14 113.535 78.1182C112.666 78.0748 111.801 78.2658 111.029 78.6719C110.731 78.8423 110.486 79.0938 110.322 79.398C110.158 79.7023 110.08 80.0472 110.098 80.3938C110.096 80.7865 110.205 81.1716 110.412 81.503C110.619 81.8343 110.916 82.0978 111.267 82.2619C112.451 82.8537 113.693 83.3173 114.972 83.645C116.469 84.0886 117.936 84.6312 119.364 85.2694C120.526 85.8167 121.548 86.6305 122.348 87.6469C123.236 88.836 123.683 90.3043 123.613 91.795C123.664 92.9332 123.427 94.0657 122.926 95.0847C122.425 96.1038 121.675 96.9756 120.749 97.6174C118.613 99.0423 116.093 99.7546 113.54 99.6549C111.578 99.6567 109.628 99.3374 107.765 98.7093C106.011 98.1485 104.387 97.2324 102.991 96.0162L105.14 91.6012C106.35 92.6418 107.744 93.4402 109.246 93.9543C110.7 94.4949 112.233 94.7817 113.781 94.8026C114.732 94.8479 115.679 94.6391 116.526 94.1968C116.848 94.0223 117.115 93.759 117.296 93.4372C117.478 93.1154 117.566 92.7481 117.552 92.3775C117.565 91.9569 117.459 91.5413 117.247 91.1801C117.034 90.8189 116.724 90.5273 116.353 90.3399C115.116 89.7113 113.822 89.2077 112.488 88.8362C111.055 88.4242 109.651 87.9137 108.286 87.3081C107.181 86.7886 106.215 86.0065 105.47 85.028C104.629 83.8733 104.206 82.4597 104.271 81.025C104.211 79.8949 104.43 78.7673 104.91 77.7458C105.389 76.7243 106.113 75.8415 107.016 75.1783C109.045 73.7758 111.463 73.0702 113.915 73.1651C115.604 73.1656 117.284 73.4109 118.904 73.8937C120.456 74.3377 121.929 75.0252 123.272 75.9313L121.029 80.4913C119.818 79.7631 118.529 79.1787 117.187 78.7494V78.7494Z" fill="white"/>
<path d="M136.952 69.3862C136.627 69.7035 136.375 70.0899 136.214 70.5178C136.053 70.9456 135.987 71.4044 136.021 71.8612V74.5299H142.418V79.1386H136.021V99.4185H129.81V79.1386H126.469V74.5299H129.81V72.0561C129.76 70.3451 130.19 68.6549 131.051 67.1838C131.848 65.8702 132.999 64.8176 134.369 64.1519C135.777 63.4672 137.319 63.1187 138.88 63.1331C140.502 63.1405 142.102 63.5221 143.559 64.2493L142.461 69.3431C141.466 68.8913 140.398 68.6286 139.31 68.568C138.452 68.5344 137.611 68.826 136.952 69.3862Z" fill="white"/>
<path d="M165.212 76.8095C167.265 79.1718 168.291 82.4872 168.291 86.7557C168.291 87.5972 168.275 88.228 168.243 88.6481H149.387C149.697 90.3637 150.606 91.9078 151.948 92.9957C153.289 94.0836 154.972 94.642 156.687 94.568C157.973 94.5719 159.247 94.3159 160.434 93.815C161.613 93.3242 162.678 92.5887 163.561 91.6556L166.903 95.1991C165.611 96.6356 164.021 97.7623 162.248 98.4978C160.316 99.2942 158.246 99.6903 156.161 99.6628C153.761 99.7139 151.388 99.1463 149.263 98.0128C147.316 96.9572 145.715 95.347 144.656 93.3798C143.585 91.25 143.029 88.8915 143.033 86.4996C143.037 84.1078 143.602 81.7514 144.68 79.6255C145.747 77.6517 147.345 76.0276 149.287 74.9436C151.351 73.8042 153.67 73.2274 156.018 73.2693C160.096 73.2679 163.161 74.4479 165.212 76.8095ZM162.61 84.4269C162.618 83.5784 162.457 82.7369 162.137 81.9532C161.817 81.1694 161.345 80.4594 160.748 79.8657C159.45 78.7721 157.819 78.1715 156.133 78.167C154.447 78.1626 152.813 78.7546 151.509 79.8414C150.239 81.0458 149.435 82.6723 149.242 84.4269H162.61Z" fill="white"/>
<path d="M182.255 74.6014C183.832 73.6856 185.619 73.2085 187.435 73.2184V79.332C186.312 79.1957 185.172 79.2909 184.086 79.6118C182.999 79.9328 181.987 80.473 181.11 81.2001C180.325 81.9123 179.705 82.7934 179.296 83.7794C178.887 84.7655 178.7 85.8317 178.747 86.9007V99.4137H172.537V73.4609H178.747V78.4583C179.531 76.8593 180.748 75.5211 182.255 74.6014V74.6014Z" fill="white"/>
<path d="M209.085 74.9173C211.062 75.9742 212.701 77.5817 213.811 79.5515C214.967 81.6457 215.552 84.0159 215.506 86.417C215.554 88.8415 214.969 91.2357 213.811 93.3556C212.707 95.3358 211.066 96.9523 209.085 98.0131C206.925 99.1464 204.521 99.7135 202.091 99.663C199.638 99.7152 197.211 99.1483 195.026 98.0131C193.034 96.9583 191.385 95.3409 190.277 93.3556C189.118 91.2359 188.533 88.8416 188.581 86.417C188.534 84.0158 189.12 81.6455 190.277 79.5515C191.391 77.5766 193.039 75.9682 195.026 74.9173C197.211 73.7822 199.638 73.2153 202.091 73.2673C204.521 73.2171 206.925 73.7842 209.085 74.9173ZM196.839 80.836C195.543 82.4345 194.834 84.4414 194.834 86.5128C194.834 88.5841 195.543 90.5911 196.839 92.1896C197.51 92.9137 198.326 93.4833 199.232 93.86C200.137 94.2367 201.112 94.4117 202.09 94.3732C203.053 94.4052 204.012 94.2269 204.901 93.8502C205.791 93.4735 206.59 92.9072 207.246 92.1896C208.542 90.591 209.251 88.5841 209.251 86.5128C209.251 84.4415 208.542 82.4346 207.246 80.836C206.59 80.1185 205.791 79.5522 204.901 79.1755C204.012 78.7988 203.053 78.6204 202.09 78.6523C201.112 78.6138 200.137 78.7889 199.232 79.1656C198.326 79.5422 197.51 80.1119 196.839 80.836V80.836Z" fill="white"/>
<path d="M109.856 31.5596L96.4723 45.162L109.856 58.7644L123.241 45.162L109.856 31.5596Z" fill="white"/>
<path d="M83.0872 4.35461L69.703 17.957L83.0872 31.5595L96.4713 17.957L83.0872 4.35461Z" fill="white"/>
<path d="M136.626 4.35461L123.242 17.957L136.626 31.5595L150.01 17.957L136.626 4.35461Z" fill="white"/>
<path d="M136.625 31.5592H109.857L83.0882 4.354H109.857L136.625 31.5592Z" fill="url(#paint0_linear_27_1620)"/>
<defs>
<linearGradient id="paint0_linear_27_1620" x1="83.0882" y1="4.354" x2="139.86" y2="16.7675" gradientUnits="userSpaceOnUse">
<stop offset="0.0373655" stop-color="#7EF6EF"/>
<stop offset="0.487162" stop-color="#3938F1"/>
<stop offset="0.957977" stop-color="#170636"/>
</linearGradient>
</defs>
</svg>
