<svg width="164" height="93" viewBox="0 0 164 93" fill="none" xmlns="http://www.w3.org/2000/svg">
<g clip-path="url(#clip0_27_152)">
<path d="M0 48.3624H21.1723V52.78H13.0898V74.3492H8.0841V52.78H0V48.3624Z" fill="white"/>
<path d="M28.0878 55.3599C29.2372 54.6788 30.5778 54.327 32.1114 54.3013V58.9791C30.0586 58.8554 28.4222 59.3309 27.1989 60.4088C25.9756 61.4851 25.3631 62.9389 25.3631 64.7702V74.3476H20.5422V54.486H25.3631V58.3092C26.0302 57.0225 26.9385 56.0394 28.0878 55.3583V55.3599Z" fill="white"/>
<path d="M46.7203 74.3493V71.9365C46.0274 72.8023 45.1385 73.4577 44.0502 73.9043C42.9619 74.3493 41.7145 74.5726 40.3047 74.5726C38.895 74.5726 37.7022 74.3075 36.6525 73.7742C35.6012 73.2425 34.7926 72.5067 34.2236 71.5654C33.6545 70.6256 33.37 69.5734 33.37 68.4104C33.37 66.5534 34.0242 65.0996 35.336 64.049C36.6461 62.9968 38.4995 62.4587 40.8979 62.4346H46.6817V61.9157C46.6817 60.7527 46.2975 59.8499 45.5323 59.2057C44.7655 58.5631 43.6531 58.2403 42.1951 58.2403C40.316 58.2403 38.3516 58.8587 36.2989 60.0957L34.5563 56.7543C36.114 55.8885 37.5286 55.2636 38.8017 54.8797C40.0749 54.4957 41.5634 54.3046 43.269 54.3046C45.8393 54.3046 47.8359 54.923 49.2569 56.1616C50.6779 57.4001 51.4013 59.1318 51.4254 61.3583L51.4624 74.3509H46.7154L46.7203 74.3493ZM45.0147 69.8754C46.0033 69.22 46.5595 68.4088 46.6833 67.4433V65.6618H41.6775C40.3915 65.6618 39.4463 65.853 38.8403 66.2369C38.2343 66.6209 37.9321 67.2458 37.9321 68.1116C37.9321 68.9775 38.2471 69.6216 38.8773 70.1164C39.5074 70.6112 40.3658 70.8586 41.4541 70.8586C42.8382 70.8586 44.0245 70.5309 45.0131 69.8738L45.0147 69.8754Z" fill="white"/>
<path d="M72.0077 56.3623C73.3179 57.7357 73.9721 59.5992 73.9721 61.9493V74.3492H69.1143V63.3614C69.1143 61.975 68.7188 60.8795 67.9279 60.0763C67.137 59.2731 66.0616 58.8699 64.7017 58.8699C63.0942 58.8956 61.8275 59.4401 60.9015 60.5036C59.974 61.5686 59.5111 62.9292 59.5111 64.5871V74.3508H54.6902V54.4892H59.5111V58.2016C60.871 55.6522 63.2437 54.3543 66.6307 54.3029C68.9037 54.3029 70.696 54.9904 72.0061 56.3639L72.0077 56.3623Z" fill="white"/>
<path d="M87.6359 58.5342C86.6103 58.2129 85.6651 58.0523 84.7987 58.0523C83.9837 58.0523 83.3342 58.1953 82.852 58.4796C82.3697 58.7639 82.1286 59.2041 82.1286 59.7968C82.1286 60.3896 82.4308 60.8924 83.0368 61.2265C83.6429 61.5607 84.5993 61.9141 85.911 62.2852C87.2951 62.706 88.4332 63.1205 89.3221 63.5285C90.2127 63.9365 90.9843 64.5438 91.6402 65.3486C92.2944 66.1534 92.6223 67.2104 92.6223 68.5228C92.6223 70.4537 91.8813 71.938 90.3976 72.9774C88.9138 74.0167 87.0475 74.5372 84.7987 74.5372C83.2651 74.5372 81.7701 74.2962 80.3121 73.8127C78.8525 73.3308 77.618 72.6433 76.6036 71.7517L78.2722 68.3734C79.1628 69.1413 80.2253 69.7421 81.4615 70.1742C82.6977 70.6079 83.8711 70.8232 84.9835 70.8232C85.8741 70.8232 86.583 70.669 87.1151 70.3589C87.6471 70.0489 87.9124 69.5863 87.9124 68.9662C87.9124 68.2738 87.6037 67.7534 86.9848 67.408C86.366 67.061 85.3661 66.6787 83.982 66.2578C82.6478 65.8626 81.5596 65.4723 80.7188 65.0883C79.8781 64.7044 79.1483 64.1229 78.531 63.3438C77.9121 62.5647 77.6035 61.543 77.6035 60.2804C77.6035 58.3254 78.314 56.8346 79.735 55.8065C81.1561 54.78 82.942 54.266 85.0928 54.266C86.4029 54.266 87.6938 54.4523 88.9685 54.8234C90.2416 55.1945 91.3717 55.715 92.3603 56.3832L90.6178 59.8723C89.6533 59.3037 88.6583 58.8587 87.6327 58.5358L87.6359 58.5342Z" fill="white"/>
<path d="M102.986 51.3696C102.504 51.7905 102.262 52.4218 102.262 53.2636V55.3053H107.231V58.8314H102.262V74.3492H97.4416V58.8314H94.8455V55.3053H97.4416V53.4114C97.4416 51.9511 97.7631 50.7078 98.4061 49.6797C99.0491 48.6532 99.9075 47.8789 100.983 47.36C102.058 46.8396 103.225 46.5809 104.487 46.5809C105.749 46.5809 106.934 46.8653 108.12 47.4355L107.268 51.3343C106.28 50.9391 105.463 50.7399 104.822 50.7399C104.081 50.7399 103.468 50.9504 102.986 51.3712V51.3696Z" fill="white"/>
<path d="M124.936 57.0499C126.531 58.8571 127.328 61.3936 127.328 64.661C127.328 65.3052 127.315 65.7871 127.291 66.1084H112.645C112.967 67.5188 113.627 68.6272 114.629 69.4304C115.63 70.2352 116.86 70.6368 118.318 70.6368C119.331 70.6368 120.302 70.4457 121.229 70.0617C122.157 69.6778 122.965 69.1284 123.658 68.4103L126.254 71.1203C125.266 72.2095 124.06 73.0512 122.639 73.644C121.218 74.2384 119.641 74.5356 117.911 74.5356C115.884 74.5356 114.098 74.1147 112.554 73.2729C111.009 72.4328 109.816 71.2505 108.975 69.7276C108.135 68.2063 107.715 66.4553 107.715 64.4746C107.715 62.4939 108.141 60.7382 108.995 59.2024C109.848 57.6683 111.039 56.4731 112.573 55.6201C114.105 54.7655 115.847 54.3398 117.801 54.3398C120.964 54.3398 123.343 55.2443 124.938 57.0499H124.936ZM122.916 62.8779C122.866 61.4177 122.383 60.2546 121.469 59.3888C120.554 58.5229 119.342 58.0892 117.834 58.0892C116.425 58.0892 115.245 58.5165 114.293 59.3695C113.341 60.2241 112.755 61.392 112.531 62.8779H122.914H122.916Z" fill="white"/>
<path d="M138.174 55.3599C139.323 54.6788 140.664 54.327 142.198 54.3013V58.9791C140.146 58.8554 138.508 59.3309 137.285 60.4088C136.062 61.4851 135.449 62.9389 135.449 64.7702V74.3476H130.628V54.486H135.449V58.3092C136.116 57.0225 137.025 56.0394 138.174 55.3583V55.3599Z" fill="white"/>
<path d="M159.012 55.6009C160.581 56.4426 161.806 57.625 162.683 59.1462C163.561 60.6675 164 62.4201 164 64.3992C164 66.3783 163.561 68.1742 162.683 69.7083C161.806 71.2424 160.582 72.4312 159.012 73.2713C157.441 74.1131 155.631 74.534 153.58 74.534C151.529 74.534 149.674 74.1131 148.092 73.2713C146.51 72.4312 145.279 71.2424 144.403 69.7083C143.525 68.1742 143.086 66.404 143.086 64.3992C143.086 62.3944 143.525 60.6675 144.403 59.1462C145.281 57.625 146.51 56.4426 148.092 55.6009C149.674 54.7591 151.503 54.3383 153.58 54.3383C155.657 54.3383 157.443 54.7591 159.012 55.6009ZM149.502 60.1293C148.464 61.2426 147.944 62.6899 147.944 64.4731C147.944 66.2562 148.464 67.7035 149.502 68.8168C150.54 69.93 151.899 70.4874 153.58 70.4874C155.262 70.4874 156.546 69.9316 157.584 68.8168C158.623 67.7035 159.142 66.2562 159.142 64.4731C159.142 62.6899 158.623 61.2426 157.584 60.1293C156.546 59.0161 155.212 58.4587 153.58 58.4587C151.949 58.4587 150.54 59.0145 149.502 60.1293Z" fill="white"/>
<path d="M31.1614 87.4157C31.1614 84.7009 33.2977 82.7218 36.1768 82.7218C37.6364 82.7218 38.9079 83.2069 39.7727 84.1515L38.8934 84.9772C38.1636 84.2302 37.2715 83.8897 36.2298 83.8897C34.0935 83.8897 32.5133 85.3836 32.5133 87.4173C32.5133 89.451 34.0951 90.945 36.2298 90.945C37.2715 90.945 38.1636 90.5916 38.8934 89.843L39.7727 90.6687C38.9079 91.6132 37.6364 92.1112 36.1639 92.1112C33.2977 92.1112 31.163 90.1305 31.163 87.4173L31.1614 87.4157Z" fill="white"/>
<path d="M53.221 82.8262V92.0036H51.8691V87.9137H46.4358V92.0036H45.0839V82.8262H46.4358V86.7731H51.8691V82.8262H53.221Z" fill="white"/>
<path d="M66.3061 90.8647V92.0053H59.4388V82.8279H66.1164V83.9684H60.7907V86.7877H65.5361V87.9025H60.7907V90.8663H66.3061V90.8647Z" fill="white"/>
<path d="M71.0642 87.4157C71.0642 84.7009 73.2006 82.7218 76.0796 82.7218C77.5392 82.7218 78.8107 83.2069 79.6756 84.1515L78.7963 84.9772C78.0665 84.2302 77.1743 83.8897 76.1326 83.8897C73.9963 83.8897 72.4161 85.3836 72.4161 87.4173C72.4161 89.451 73.9979 90.945 76.1326 90.945C77.1743 90.945 78.0665 90.5916 78.7963 89.843L79.6756 90.6687C78.8107 91.6132 77.5392 92.1112 76.0667 92.1112C73.2006 92.1112 71.0658 90.1305 71.0658 87.4173L71.0642 87.4157Z" fill="white"/>
<path d="M88.0684 87.9265L86.3387 89.6309V92.0036H84.9868V82.8262H86.3387V87.9522L91.4763 82.8262H93.0179L88.9766 86.9562L93.2751 92.0036H91.6933L88.07 87.9265H88.0684Z" fill="white"/>
<path d="M96.9771 87.4157C96.9771 84.7282 99.1134 82.7218 102.02 82.7218C104.926 82.7218 107.035 84.7153 107.035 87.4157C107.035 90.1161 104.899 92.1096 102.02 92.1096C99.1407 92.1096 96.9771 90.1032 96.9771 87.4157ZM105.683 87.4157C105.683 85.3836 104.116 83.8881 102.02 83.8881C99.9236 83.8881 98.329 85.382 98.329 87.4157C98.329 89.4494 99.8963 90.9434 102.02 90.9434C104.143 90.9434 105.683 89.4494 105.683 87.4157Z" fill="white"/>
<path d="M112.399 88.0455V82.8279H113.751V87.9941C113.751 90.0262 114.711 90.9434 116.415 90.9434C118.119 90.9434 119.091 90.0262 119.091 87.9941V82.8279H120.403V88.0455C120.403 90.7073 118.903 92.1097 116.402 92.1097C113.901 92.1097 112.401 90.7073 112.401 88.0455H112.399Z" fill="white"/>
<path d="M128.256 83.9667H125.012V82.8262H132.839V83.9667H129.595V92.0036H128.256V83.9667Z" fill="white"/>
<path d="M82.9613 21.2189L82 20.2583L80.4102 21.847L70.283 31.9642L82 43.6716L93.7154 31.9642L82.9613 21.2173V21.2189ZM73.4208 31.9658L81.9775 23.4149L82 23.3924L82.045 23.4374L90.576 31.9658L82 40.5359L73.4208 31.9658Z" fill="#3D3DFF"/>
<path d="M63.9735 2.2442L61.7535 0.0257568L60.1605 1.61449L50.0365 11.7316L61.7535 23.4391L73.4465 11.7541L73.469 11.7316L63.9735 2.24259V2.2442ZM61.7535 20.3034L53.1743 11.7332L61.731 3.18555L61.7535 3.16306L70.3295 11.7332L70.307 11.7557L61.7535 20.3034Z" fill="#3D3DFF"/>
<path d="M102.246 0.0224609L92.124 10.1396L90.5535 11.7074L90.531 11.7299L102.246 23.4374L103.839 21.8487L113.963 11.7315L102.246 0.0224609ZM102.269 20.2776L102.246 20.3001L93.6705 11.7299L93.6929 11.7074L102.246 3.15977L110.826 11.7299L102.269 20.2776Z" fill="#3D3DFF"/>
<path d="M102.269 20.2551L93.6928 11.685L92.1239 10.1171L81.9983 0H61.7487L60.1556 1.58873L70.3022 11.7284L71.8727 13.2962L81.9967 23.4133H102.243L103.836 21.8246L102.266 20.2551H102.269ZM82.9178 21.1965L63.9236 2.21844H81.0788L100.071 21.1981H82.9162L82.9178 21.1965Z" fill="#3D3DFF"/>
</g>
<defs>
<clipPath id="clip0_27_152">
<rect width="164" height="92.1096" fill="white"/>
</clipPath>
</defs>
</svg>
