<svg width="164" height="93" viewBox="0 0 164 93" fill="none" xmlns="http://www.w3.org/2000/svg">
<g clip-path="url(#clip0_27_1805)">
<path d="M0 48.3953H21.1723V52.8159H13.0898V74.3997H8.0841V52.8159H0V48.3953Z" fill="white"/>
<path d="M28.0878 55.3975C29.2372 54.7159 30.5778 54.3639 32.1114 54.3381V59.0192C30.0586 58.8954 28.4222 59.3712 27.1989 60.4498C25.9756 61.5269 25.3631 62.9816 25.3631 64.8142V74.3981H20.5422V54.523H25.3631V58.3488C26.0302 57.0612 26.9385 56.0774 28.0878 55.3959V55.3975Z" fill="white"/>
<path d="M46.7203 74.3996V71.9852C46.0274 72.8516 45.1385 73.5075 44.0502 73.9544C42.9619 74.3997 41.7145 74.6231 40.3047 74.6231C38.895 74.6231 37.7022 74.3579 36.6525 73.8242C35.6012 73.2921 34.7926 72.5559 34.2236 71.6139C33.6545 70.6735 33.37 69.6206 33.37 68.4567C33.37 66.5985 34.0242 65.1437 35.336 64.0924C36.6461 63.0395 38.4995 62.501 40.8979 62.4769H46.6817V61.9576C46.6817 60.7938 46.2975 59.8904 45.5323 59.2458C44.7655 58.6028 43.6531 58.2797 42.1951 58.2797C40.316 58.2797 38.3516 58.8986 36.2989 60.1363L34.5563 56.7927C36.114 55.9263 37.5286 55.301 38.8017 54.9168C40.0749 54.5326 41.5634 54.3413 43.269 54.3413C45.8393 54.3413 47.8359 54.9602 49.2569 56.1996C50.6779 57.439 51.4013 59.1718 51.4254 61.3998L51.4624 74.4013H46.7154L46.7203 74.3996ZM45.0147 69.9228C46.0033 69.2669 46.5595 68.4551 46.6833 67.489V65.7063H41.6775C40.3915 65.7063 39.4463 65.8976 38.8403 66.2818C38.2343 66.666 37.9321 67.2913 37.9321 68.1577C37.9321 69.0242 38.2471 69.6688 38.8773 70.1639C39.5074 70.659 40.3658 70.9066 41.4541 70.9066C42.8382 70.9066 44.0245 70.5786 45.0131 69.9212L45.0147 69.9228Z" fill="white"/>
<path d="M72.0077 56.4007C73.3179 57.7751 73.9721 59.6398 73.9721 61.9915V74.3998H69.1143V63.4045C69.1143 62.0172 68.7188 60.9209 67.9279 60.1172C67.137 59.3134 66.0616 58.91 64.7017 58.91C63.0942 58.9357 61.8275 59.4806 60.9015 60.5448C59.974 61.6106 59.5111 62.9721 59.5111 64.631V74.4014H54.6902V54.5263H59.5111V58.2412C60.871 55.6901 63.2437 54.3913 66.6307 54.3398C68.9037 54.3398 70.696 55.0279 72.0061 56.4023L72.0077 56.4007Z" fill="white"/>
<path d="M87.6359 58.5739C86.6103 58.2524 85.6651 58.0916 84.7987 58.0916C83.9837 58.0916 83.3342 58.2347 82.852 58.5192C82.3697 58.8037 82.1286 59.2442 82.1286 59.8373C82.1286 60.4305 82.4308 60.9337 83.0368 61.268C83.6429 61.6024 84.5993 61.956 85.911 62.3274C87.2951 62.7485 88.4332 63.1633 89.3221 63.5716C90.2127 63.9799 90.9843 64.5875 91.6402 65.3929C92.2944 66.1982 92.6223 67.2559 92.6223 68.5693C92.6223 70.5015 91.8813 71.9868 90.3976 73.0269C88.9138 74.0669 87.0475 74.5877 84.7987 74.5877C83.2651 74.5877 81.7701 74.3466 80.3121 73.8627C78.8525 73.3805 77.618 72.6925 76.6036 71.8003L78.2722 68.4198C79.1628 69.1882 80.2253 69.7894 81.4615 70.2218C82.6977 70.6558 83.8711 70.8712 84.9835 70.8712C85.8741 70.8712 86.583 70.7169 87.1151 70.4066C87.6471 70.0964 87.9124 69.6334 87.9124 69.0129C87.9124 68.3201 87.6037 67.7993 86.9848 67.4537C86.366 67.1064 85.3661 66.7239 83.982 66.3027C82.6478 65.9073 81.5596 65.5166 80.7188 65.1324C79.8781 64.7482 79.1483 64.1663 78.531 63.3867C77.9121 62.6071 77.6035 61.5847 77.6035 60.3212C77.6035 58.3649 78.314 56.8731 79.735 55.8443C81.1561 54.8171 82.942 54.3027 85.0928 54.3027C86.4029 54.3027 87.6938 54.4892 88.9685 54.8605C90.2416 55.2319 91.3717 55.7527 92.3603 56.4214L90.6178 59.9129C89.6533 59.3438 88.6583 58.8986 87.6327 58.5755L87.6359 58.5739Z" fill="white"/>
<path d="M102.986 51.4045C102.504 51.8257 102.262 52.4574 102.262 53.2997V55.3429H107.231V58.8713H102.262V74.3997H97.4416V58.8713H94.8455V55.3429H97.4416V53.4476C97.4416 51.9864 97.7631 50.7422 98.4061 49.7134C99.0491 48.6862 99.9075 47.9114 100.983 47.3922C102.058 46.8714 103.225 46.6125 104.487 46.6125C105.749 46.6125 106.934 46.8971 108.12 47.4677L107.268 51.3691C106.28 50.9737 105.463 50.7744 104.822 50.7744C104.081 50.7744 103.468 50.9849 102.986 51.4061V51.4045Z" fill="white"/>
<path d="M124.936 57.0886C126.531 58.897 127.328 61.4352 127.328 64.7049C127.328 65.3495 127.315 65.8317 127.291 66.1532H112.645C112.967 67.5646 113.627 68.6738 114.629 69.4775C115.63 70.2829 116.86 70.6848 118.318 70.6848C119.331 70.6848 120.302 70.4935 121.229 70.1093C122.157 69.7251 122.965 69.1753 123.658 68.4568L126.254 71.1686C125.266 72.2585 124.06 73.1008 122.639 73.694C121.218 74.2888 119.641 74.5862 117.911 74.5862C115.884 74.5862 114.098 74.165 112.554 73.3227C111.009 72.4819 109.816 71.2988 108.975 69.7749C108.135 68.2526 107.715 66.5004 107.715 64.5184C107.715 62.5364 108.141 60.7794 108.995 59.2426C109.848 57.7074 111.039 56.5115 112.573 55.6579C114.105 54.8027 115.847 54.3767 117.801 54.3767C120.964 54.3767 123.343 55.2817 124.938 57.0886H124.936ZM122.916 62.9206C122.866 61.4593 122.383 60.2955 121.469 59.4291C120.554 58.5626 119.342 58.1286 117.834 58.1286C116.425 58.1286 115.245 58.5562 114.293 59.4098C113.341 60.265 112.755 61.4336 112.531 62.9206H122.914H122.916Z" fill="white"/>
<path d="M138.174 55.3975C139.323 54.7159 140.664 54.3639 142.198 54.3381V59.0192C140.146 58.8954 138.508 59.3712 137.285 60.4498C136.062 61.5269 135.449 62.9816 135.449 64.8142V74.3981H130.628V54.523H135.449V58.3488C136.116 57.0612 137.025 56.0774 138.174 55.3959V55.3975Z" fill="white"/>
<path d="M159.012 55.6387C160.581 56.4811 161.806 57.6642 162.683 59.1865C163.561 60.7088 164 62.4626 164 64.443C164 66.4234 163.561 68.2206 162.683 69.7558C161.806 71.2909 160.582 72.4805 159.012 73.3212C157.441 74.1635 155.631 74.5847 153.58 74.5847C151.529 74.5847 149.674 74.1635 148.092 73.3212C146.51 72.4805 145.279 71.2909 144.403 69.7558C143.525 68.2206 143.086 66.4492 143.086 64.443C143.086 62.4368 143.525 60.7088 144.403 59.1865C145.281 57.6642 146.51 56.4811 148.092 55.6387C149.674 54.7964 151.503 54.3752 153.58 54.3752C155.657 54.3752 157.443 54.7964 159.012 55.6387ZM149.502 60.1703C148.464 61.2843 147.944 62.7326 147.944 64.5169C147.944 66.3013 148.464 67.7496 149.502 68.8636C150.54 69.9776 151.899 70.5354 153.58 70.5354C155.262 70.5354 156.546 69.9792 157.584 68.8636C158.623 67.7496 159.142 66.3013 159.142 64.5169C159.142 62.7326 158.623 61.2843 157.584 60.1703C156.546 59.0563 155.212 58.4985 153.58 58.4985C151.949 58.4985 150.54 59.0547 149.502 60.1703Z" fill="white"/>
<path d="M71.7876 89.7707H66.7593L65.7177 92.0662H64.3256L68.6111 82.8826H69.9486L74.247 92.0662H72.8276L71.786 89.7707H71.7876ZM71.315 88.721L69.2734 84.22L67.2319 88.721H71.315Z" fill="white"/>
<path d="M86.6698 86.0848C86.6698 88.0797 85.1829 89.2869 82.7234 89.2869H80.3845V92.0679H79.0326V82.8843H82.7234C85.1829 82.8843 86.6698 84.0915 86.6698 86.0864V86.0848ZM85.3179 86.0848C85.3179 84.7731 84.4129 84.0256 82.6816 84.0256H80.3829V88.1456H82.6816C84.4113 88.1456 85.3179 87.3981 85.3179 86.0864V86.0848Z" fill="white"/>
<path d="M99.6744 86.0848C99.6744 88.0797 98.1875 89.2869 95.728 89.2869H93.3891V92.0679H92.0372V82.8843H95.728C98.1875 82.8843 99.6744 84.0915 99.6744 86.0864V86.0848ZM98.3225 86.0848C98.3225 84.7731 97.4175 84.0256 95.6863 84.0256H93.3875V88.1456H95.6863C97.4159 88.1456 98.3225 87.3981 98.3225 86.0864V86.0848Z" fill="white"/>
<path d="M82.9613 21.2335L82 20.2722L80.4102 21.862L70.283 31.986L82 43.7015L93.7154 31.986L82.9613 21.2319V21.2335ZM73.4208 31.9877L81.9775 23.4309L82 23.4084L82.045 23.4535L90.576 31.9877L82 40.5636L73.4208 31.9877Z" fill="#3D3DFF"/>
<path d="M63.9735 2.24559L61.7535 0.0256348L60.1605 1.61545L50.0365 11.7395L61.7535 23.4549L73.4465 11.762L73.469 11.7395L63.9735 2.24398V2.24559ZM61.7535 20.3171L53.1743 11.7411L61.731 3.18758L61.7535 3.16508L70.3295 11.7411L70.307 11.7636L61.7535 20.3171Z" fill="#3D3DFF"/>
<path d="M102.246 0.0224609L92.124 10.1465L90.5535 11.7154L90.531 11.7379L102.246 23.4533L103.839 21.8635L113.963 11.7395L102.246 0.0224609ZM102.269 20.2914L102.246 20.3139L93.6705 11.7379L93.6929 11.7154L102.246 3.1619L110.826 11.7379L102.269 20.2914Z" fill="#3D3DFF"/>
<path d="M102.269 20.2689L93.6928 11.6929L92.1239 10.124L81.9983 0H61.7487L60.1556 1.58981L70.3022 11.7363L71.8727 13.3052L81.9967 23.4293H102.243L103.836 21.8394L102.266 20.2689H102.269ZM82.9178 21.2109L63.9236 2.21995H81.0788L100.071 21.2125H82.9162L82.9178 21.2109Z" fill="#3D3DFF"/>
</g>
<defs>
<clipPath id="clip0_27_1805">
<rect width="164" height="92.0677" fill="white"/>
</clipPath>
</defs>
</svg>
