<svg width="164" height="93" viewBox="0 0 164 93" fill="none" xmlns="http://www.w3.org/2000/svg">
<g clip-path="url(#clip0_27_247)">
<path d="M0 48.3566H21.1723V52.7736H13.0898V74.3402H8.0841V52.7736H0V48.3566Z" fill="white"/>
<path d="M28.0878 55.3533C29.2372 54.6723 30.5778 54.3205 32.1114 54.2948V58.9721C30.0586 58.8484 28.4222 59.3238 27.1989 60.4016C25.9756 61.4778 25.3631 62.9314 25.3631 64.7625V74.3387H20.5422V54.4795H25.3631V58.3023C26.0302 57.0157 26.9385 56.0327 28.0878 55.3517V55.3533Z" fill="white"/>
<path d="M46.7203 74.3403V71.9277C46.0274 72.7935 45.1385 73.4488 44.0502 73.8954C42.9619 74.3403 41.7145 74.5635 40.3047 74.5635C38.895 74.5635 37.7022 74.2985 36.6525 73.7653C35.6012 73.2336 34.7926 72.4979 34.2236 71.5567C33.6545 70.6171 33.37 69.565 33.37 68.4021C33.37 66.5453 34.0242 65.0917 35.336 64.0412C36.6461 62.9892 38.4995 62.4511 40.8979 62.427H46.6817V61.9082C46.6817 60.7453 46.2975 59.8426 45.5323 59.1985C44.7655 58.556 43.6531 58.2332 42.1951 58.2332C40.316 58.2332 38.3516 58.8516 36.2989 60.0884L34.5563 56.7474C36.114 55.8817 37.5286 55.2569 38.8017 54.873C40.0749 54.4891 41.5634 54.298 43.269 54.298C45.8393 54.298 47.8359 54.9164 49.2569 56.1548C50.6779 57.3931 51.4013 59.1246 51.4254 61.3508L51.4624 74.3419H46.7154L46.7203 74.3403ZM45.0147 69.867C46.0033 69.2116 46.5595 68.4005 46.6833 67.4352V65.6539H41.6775C40.3915 65.6539 39.4463 65.845 38.8403 66.2289C38.2343 66.6128 37.9321 67.2376 37.9321 68.1034C37.9321 68.9691 38.2471 69.6132 38.8773 70.1079C39.5074 70.6026 40.3658 70.85 41.4541 70.85C42.8382 70.85 44.0245 70.5223 45.0131 69.8654L45.0147 69.867Z" fill="white"/>
<path d="M72.0077 56.3555C73.3179 57.7289 73.9721 59.5921 73.9721 61.942V74.3403H69.1143V63.3538C69.1143 61.9676 68.7188 60.8722 67.9279 60.0691C67.137 59.266 66.0616 58.8628 64.7017 58.8628C63.0942 58.8885 61.8275 59.433 60.9015 60.4964C59.974 61.5613 59.5111 62.9217 59.5111 64.5793V74.3419H54.6902V54.4827H59.5111V58.1947C60.871 55.6456 63.2437 54.3478 66.6307 54.2964C68.9037 54.2964 70.696 54.9838 72.0061 56.3572L72.0077 56.3555Z" fill="white"/>
<path d="M87.6359 58.5271C86.6103 58.2059 85.6651 58.0452 84.7987 58.0452C83.9837 58.0452 83.3342 58.1882 82.852 58.4725C82.3697 58.7568 82.1286 59.1969 82.1286 59.7896C82.1286 60.3823 82.4308 60.885 83.0368 61.2191C83.6429 61.5532 84.5993 61.9066 85.911 62.2776C87.2951 62.6984 88.4332 63.1128 89.3221 63.5208C90.2127 63.9288 90.9843 64.5359 91.6402 65.3406C92.2944 66.1454 92.6223 67.2022 92.6223 68.5145C92.6223 70.4452 91.8813 71.9293 90.3976 72.9685C88.9138 74.0078 87.0475 74.5282 84.7987 74.5282C83.2651 74.5282 81.7701 74.2872 80.3121 73.8038C78.8525 73.3219 77.618 72.6344 76.6036 71.743L78.2722 68.3651C79.1628 69.1329 80.2253 69.7336 81.4615 70.1657C82.6977 70.5994 83.8711 70.8146 84.9835 70.8146C85.8741 70.8146 86.583 70.6604 87.1151 70.3504C87.6471 70.0404 87.9124 69.5778 87.9124 68.9578C87.9124 68.2656 87.6037 67.7451 86.9848 67.3998C86.366 67.0529 85.3661 66.6706 83.982 66.2498C82.6478 65.8546 81.5596 65.4643 80.7188 65.0804C79.8781 64.6966 79.1483 64.1151 78.531 63.3361C77.9121 62.5571 77.6035 61.5355 77.6035 60.2731C77.6035 58.3183 78.314 56.8277 79.735 55.7998C81.1561 54.7734 82.942 54.2594 85.0928 54.2594C86.4029 54.2594 87.6938 54.4457 88.9685 54.8168C90.2416 55.1878 91.3717 55.7082 92.3603 56.3764L90.6178 59.8651C89.6533 59.2965 88.6583 58.8516 87.6327 58.5287L87.6359 58.5271Z" fill="white"/>
<path d="M102.986 51.3634C102.504 51.7843 102.262 52.4155 102.262 53.2572V55.2986H107.231V58.8243H102.262V74.3403H97.4416V58.8243H94.8455V55.2986H97.4416V53.4049C97.4416 51.9449 97.7631 50.7017 98.4061 49.6737C99.0491 48.6473 99.9075 47.8731 100.983 47.3543C102.058 46.8339 103.225 46.5753 104.487 46.5753C105.749 46.5753 106.934 46.8596 108.12 47.4298L107.268 51.3281C106.28 50.933 105.463 50.7338 104.822 50.7338C104.081 50.7338 103.468 50.9442 102.986 51.365V51.3634Z" fill="white"/>
<path d="M124.936 57.0429C126.531 58.8499 127.328 61.3861 127.328 64.6532C127.328 65.2972 127.315 65.7791 127.291 66.1004H112.645C112.967 67.5106 113.627 68.6189 114.629 69.422C115.63 70.2267 116.86 70.6283 118.318 70.6283C119.331 70.6283 120.302 70.4371 121.229 70.0532C122.157 69.6694 122.965 69.12 123.658 68.4021L126.254 71.1117C125.266 72.2007 124.06 73.0424 122.639 73.6351C121.218 74.2294 119.641 74.5265 117.911 74.5265C115.884 74.5265 114.098 74.1057 112.554 73.2641C111.009 72.424 109.816 71.2418 108.975 69.7191C108.135 68.1981 107.715 66.4473 107.715 64.4668C107.715 62.4864 108.141 60.7308 108.995 59.1953C109.848 57.6613 111.039 56.4663 112.573 55.6134C114.105 54.7589 115.847 54.3333 117.801 54.3333C120.964 54.3333 123.343 55.2376 124.938 57.0429H124.936ZM122.916 62.8703C122.866 61.4102 122.383 60.2473 121.469 59.3816C120.554 58.5158 119.342 58.0821 117.834 58.0821C116.425 58.0821 115.245 58.5094 114.293 59.3623C113.341 60.2168 112.755 61.3845 112.531 62.8703H122.914H122.916Z" fill="white"/>
<path d="M138.174 55.3533C139.323 54.6723 140.664 54.3205 142.198 54.2948V58.9721C140.146 58.8484 138.508 59.3238 137.285 60.4016C136.062 61.4778 135.449 62.9314 135.449 64.7625V74.3387H130.628V54.4795H135.449V58.3023C136.116 57.0157 137.025 56.0327 138.174 55.3517V55.3533Z" fill="white"/>
<path d="M159.012 55.5941C160.581 56.4358 161.806 57.618 162.683 59.1391C163.561 60.6601 164 62.4125 164 64.3914C164 66.3702 163.561 68.166 162.683 69.6999C161.806 71.2338 160.582 72.4224 159.012 73.2625C157.441 74.1041 155.631 74.5249 153.58 74.5249C151.529 74.5249 149.674 74.1041 148.092 73.2625C146.51 72.4224 145.279 71.2338 144.403 69.6999C143.525 68.166 143.086 66.3959 143.086 64.3914C143.086 62.3868 143.525 60.6601 144.403 59.1391C145.281 57.618 146.51 56.4358 148.092 55.5941C149.674 54.7525 151.503 54.3317 153.58 54.3317C155.657 54.3317 157.443 54.7525 159.012 55.5941ZM149.502 60.1221C148.464 61.2352 147.944 62.6824 147.944 64.4652C147.944 66.2481 148.464 67.6953 149.502 68.8084C150.54 69.9215 151.899 70.4789 153.58 70.4789C155.262 70.4789 156.546 69.9232 157.584 68.8084C158.623 67.6953 159.142 66.2481 159.142 64.4652C159.142 62.6824 158.623 61.2352 157.584 60.1221C156.546 59.0089 155.212 58.4516 153.58 58.4516C151.949 58.4516 150.54 59.0073 149.502 60.1221Z" fill="white"/>
<path d="M40.6921 86.0157C40.6921 88.009 39.2052 89.2153 36.7457 89.2153H34.4068V91.994H33.0549V82.8177H36.7457C39.2052 82.8177 40.6921 84.024 40.6921 86.0173V86.0157ZM39.3402 86.0157C39.3402 84.7051 38.4352 83.9582 36.7039 83.9582H34.4052V88.0749H36.7039C38.4336 88.0749 39.3402 87.328 39.3402 86.0173V86.0157Z" fill="white"/>
<path d="M51.6135 89.6988H46.5852L45.5436 91.9924H44.1515L48.4371 82.8162H49.7745L54.073 91.9924H52.6535L51.6119 89.6988H51.6135ZM51.1409 88.6499L49.0994 84.1525L47.0578 88.6499H51.1409Z" fill="white"/>
<path d="M61.9127 88.8218V91.9941H60.5736V88.7945L56.8153 82.8162H58.2621L61.2906 87.6541L64.332 82.8162H65.671L61.9127 88.8202V88.8218Z" fill="white"/>
<path d="M79.0261 91.994L79.0133 85.3074L75.5941 90.8793H74.972L71.5513 85.3475V91.994H70.254V82.8177H71.3632L75.3096 89.2683L79.203 82.8177H80.3121L80.325 91.994H79.0277H79.0261Z" fill="white"/>
<path d="M93.4084 90.8536V91.994H86.5411V82.8177H93.2187V83.9582H87.893V86.7771H92.6384V87.8918H87.893V90.8552H93.4084V90.8536Z" fill="white"/>
<path d="M107.116 82.8162V91.9924H106.006L100.329 85.1484V91.9924H98.9768V82.8162H100.086L105.764 89.6602V82.8162H107.116Z" fill="white"/>
<path d="M115.211 83.9582H111.967V82.8177H119.794V83.9582H116.55V91.994H115.211V83.9582Z" fill="white"/>
<path d="M123.66 90.9452L124.16 89.9221C124.862 90.5388 126.066 90.9838 127.282 90.9838C128.916 90.9838 129.62 90.367 129.62 89.5687C129.62 87.3264 123.888 88.7431 123.888 85.3347C123.888 83.9196 125.023 82.7134 127.511 82.7134C128.621 82.7134 129.768 83.0009 130.553 83.5261L130.108 84.575C129.283 84.0642 128.351 83.8281 127.511 83.8281C125.902 83.8281 125.213 84.4834 125.213 85.2833C125.213 87.5256 130.943 86.1218 130.943 89.4916C130.943 90.8938 129.781 92.1001 127.28 92.1001C125.833 92.1001 124.414 91.6278 123.657 90.9468L123.66 90.9452Z" fill="white"/>
<path d="M82.9613 21.2165L82 20.256L80.4102 21.8445L70.283 31.9604L82 43.6665L93.7154 31.9604L82.9613 21.2149V21.2165ZM73.4208 31.962L81.9775 23.4122L82 23.3897L82.045 23.4347L90.576 31.962L82 40.5312L73.4208 31.962Z" fill="#3D3DFF"/>
<path d="M63.9735 2.24393L61.7535 0.0257568L60.1605 1.6143L50.0365 11.7302L61.7535 23.4363L73.4465 11.7527L73.469 11.7302L63.9735 2.24233V2.24393ZM61.7535 20.301L53.1743 11.7318L61.731 3.18517L61.7535 3.16269L70.3295 11.7318L70.307 11.7543L61.7535 20.301Z" fill="#3D3DFF"/>
<path d="M102.246 0.0224609L92.124 10.1384L90.5535 11.706L90.531 11.7285L102.246 23.4346L103.839 21.846L113.963 11.7301L102.246 0.0224609ZM102.269 20.2752L102.246 20.2977L93.6705 11.7285L93.6929 11.706L102.246 3.15939L110.826 11.7285L102.269 20.2752Z" fill="#3D3DFF"/>
<path d="M102.269 20.2527L93.6928 11.6836L92.1239 10.1159L81.9983 0H61.7487L60.1556 1.58854L70.3022 11.7269L71.8727 13.2946L81.9967 23.4105H102.243L103.836 21.822L102.266 20.2527H102.269ZM82.9178 21.194L63.9236 2.21818H81.0788L100.071 21.1956H82.9162L82.9178 21.194Z" fill="#3D3DFF"/>
</g>
<defs>
<clipPath id="clip0_27_247">
<rect width="164" height="92.0985" fill="white"/>
</clipPath>
</defs>
</svg>
